<svg width="269" height="264" viewBox="0 0 269 264" fill="none" xmlns="http://www.w3.org/2000/svg">
<g clip-path="url(#clip0_1_54688)" filter="url(#filter0_d_1_54688)">
<path d="M81.9709 102.724L82.4328 102.404L81.8288 103.685C81.6393 104.064 81.2129 104.515 80.5497 105.037L79.5548 105.926L79.5903 104.93C79.6377 104.456 80.4313 103.72 81.9709 102.724ZM61.0075 91.9456C60.7232 90.8547 60.1666 89.5147 59.3375 87.9258L58.1294 85.7558C57.8452 85.3289 57.4543 85.1866 56.9569 85.3289C56.4831 85.4949 56.27 85.8388 56.3173 86.3606L56.6726 91.2697C56.8858 94.7322 56.9332 97.08 56.8148 98.3132C56.7437 98.9061 56.5897 99.3567 56.3529 99.665L55.3224 100.448L53.8301 101.337C53.1432 101.811 52.6339 102.321 52.3023 102.867C51.4495 104.218 50.881 106.305 50.5968 109.128C50.3125 111.736 50.3717 113.681 50.7744 114.962C50.9166 115.412 50.9403 115.803 50.8455 116.135C50.7744 116.444 50.5613 116.8 50.2059 117.203L49.3887 117.665L48.6781 118.199L48.3938 119.444C48.4175 119.752 48.5833 120.084 48.8913 120.44L49.673 121.507C49.9572 122.029 50.0994 122.503 50.0994 122.93L49.8862 124.388C49.7914 125.171 49.8269 125.788 49.9927 126.238C50.2059 126.902 50.6442 127.246 51.3074 127.27C52.0654 127.199 52.5865 127.199 52.8708 127.27C53.4393 127.436 53.8775 127.649 54.1855 127.91C54.6355 128.385 54.9316 129.013 55.0737 129.796C55.2396 130.555 55.2159 131.171 55.0027 131.645L54.3276 131.859L53.5104 132.072L52.4089 132.321C51.9825 132.535 51.7338 132.891 51.6627 133.389L52.1957 134.136L53.1906 135.345L54.5052 136.732C55.0737 137.373 55.204 137.823 54.8961 138.084C54.6829 138.25 54.2802 137.906 53.688 137.053C52.8353 135.819 52.1602 134.966 51.6627 134.491C50.1941 133.068 48.6426 132.084 47.0081 131.539C45.0421 130.78 44.059 130.483 44.059 130.649L44.592 131.361L45.1605 132.037C43.5971 131.278 41.4179 130.377 38.6227 129.333L36.9528 129.049C36.1 128.93 35.6618 128.93 35.6381 129.049C35.5907 129.262 35.9105 129.618 36.5975 130.116L37.9476 131.041L47.0792 138.191C48.0267 138.95 48.9623 140.053 49.8862 141.499C50.6678 142.661 51.189 143.646 51.4495 144.452C51.6154 144.997 51.9114 145.412 52.3378 145.697L53.6169 146.444L54.292 146.942L54.2565 147.155C54.0907 147.867 54.1144 148.804 54.3276 149.966L55.0737 150.748L55.891 151.424C50.3244 160.555 46.712 169.614 45.0539 178.602C42.543 192.073 44.8052 204.002 51.8404 214.389C60.7706 227.551 71.5366 235.804 84.1384 239.148C89.5154 240.571 95.6742 241.259 102.615 241.211L122.796 239.753C134.261 238.449 144.921 234.12 154.775 226.769C157.901 224.421 160.779 221.883 163.409 219.156L166.713 215.456L166.109 212.504L108.406 196.958L107.411 201.156L105.777 199.662C105.658 199.259 105.658 198.867 105.777 198.488C105.895 198.156 106.049 197.907 106.239 197.741L98.1377 201.761C92.7369 204.417 87.1704 204.867 81.438 203.112C74.5212 201.002 68.623 195.855 63.7434 187.674C60.5219 182.266 59.1954 175.958 59.7639 168.748C60.1902 163.27 61.5996 157.804 63.9921 152.349C65.745 152.42 66.7399 152.586 66.9767 152.847C67.6637 153.63 68.3151 154.104 68.931 154.27C70.2338 154.673 71.88 154.199 73.8698 152.847L74.0119 152.74C74.6515 152.314 74.9239 151.412 74.8291 150.037L74.9357 148.97L75.2555 148.187C75.445 147.974 75.7411 147.784 76.1438 147.618L77.6006 147.013L79.0574 147.155L80.7984 147.902C82.1486 148.709 82.9777 149.148 83.2856 149.219C84.3278 149.48 85.1688 148.756 85.8083 147.049L86.59 144.025L86.7677 143.491L87.5849 141.748C87.8455 141.084 87.7744 140.432 87.3717 139.792C87.1348 139.389 86.8861 138.404 86.6255 136.839C86.365 135.274 86.2465 134.064 86.2702 133.211L86.3058 131.752C86.3058 131.064 86.1636 130.412 85.8794 129.796C85.7136 129.44 85.3938 128.93 84.92 128.266L83.7475 126.381L83.3922 124.993L83.5698 123.748C83.8067 122.823 83.9015 122.017 83.8541 121.329L83.7475 119.586C83.7001 118.898 83.5698 118.294 83.3567 117.772C83.2619 117.535 82.9421 116.954 82.3973 116.029C82.0183 115.365 81.8407 114.89 81.8643 114.606C81.9117 114.132 82.3262 112.792 83.1079 110.586C83.8896 108.499 84.3515 107.005 84.4937 106.104C84.6358 105.179 84.7068 104.171 84.7068 103.08L84.6713 101.622C84.6476 101.361 84.5173 101.135 84.2805 100.946L87.4428 98.1709C87.6323 98.0049 87.7389 97.8033 87.7625 97.5662C87.8099 97.3053 87.7507 97.0681 87.5849 96.8547C87.4664 96.665 87.2769 96.5345 87.0164 96.4634L86.3413 96.5701C84.1383 97.6848 82.7289 98.3132 82.1131 98.4555L80.2299 98.4199L79.3772 98.2776C78.1217 98.0879 76.7597 98.7282 75.291 100.199L75.0068 100.519L75.4687 96.6768C75.5398 95.6571 75.1726 94.0563 74.3672 91.8744C73.7514 90.3092 72.9934 88.6254 72.0932 86.823C71.7142 86.0641 71.4063 84.57 71.1694 82.3408L70.8852 77.7162C70.8852 77.1945 70.6364 76.8862 70.139 76.7913C69.6416 76.6728 69.2744 76.8388 69.0375 77.2894L68.5756 78.4989C68.2677 79.4475 68.1137 80.3487 68.1137 81.2024C68.1137 81.819 67.9479 82.9337 67.6163 84.5463L67.9361 81.6649C67.9597 81.404 67.9005 81.1669 67.7584 80.9534C67.5926 80.7163 67.3794 80.574 67.1188 80.5265C66.8583 80.5028 66.6096 80.5621 66.3727 80.7044C66.1595 80.8467 66.0292 81.0483 65.9818 81.3091L65.6621 82.7321C65.3778 83.7756 65.0699 84.653 64.7382 85.3645C64.4303 86.0523 64.2882 86.8586 64.3119 87.7835L64.5961 90.1669L64.8448 91.7677C64.8922 92.5266 64.2408 93.7954 62.8906 95.5741L62.0379 96.7124L61.647 97.3883L61.5404 95.8942C61.422 94.1156 61.2443 92.7993 61.0075 91.9456Z" fill="#0D131A"/>
<path d="M62.713 111.725L62.0734 111.369C61.9076 111.44 61.9076 111.808 62.0734 112.472C62.3103 113.444 62.4169 114.606 62.3932 115.958C62.3695 117.215 62.2392 118.282 62.0024 119.16C61.7892 119.895 61.4457 120.571 60.972 121.188C60.5693 121.757 60.3561 122.302 60.3324 122.824C60.3087 124.057 60.4035 125.219 60.6166 126.31C60.6166 126.547 60.5337 126.713 60.3679 126.808C60.2258 126.903 60.0008 126.82 59.6928 126.559C59.3849 126.18 59.1125 125.658 58.8756 124.994C58.7572 124.638 58.7453 124.211 58.8401 123.713C58.8875 123.097 58.7927 122.551 58.5558 122.077L57.9873 120.903C57.7741 120.476 57.5609 120.298 57.3478 120.369L57.2412 120.974L57.4188 122.788L56.9924 123.429L56.8148 124.496C56.8622 124.875 57.1938 125.776 57.8097 127.199L58.6269 129.583C58.8875 130.389 58.994 130.994 58.9467 131.397C58.8282 132.512 58.6032 133.069 58.2716 133.069L57.9873 132.607L57.7031 131.646L56.5661 129.476C56.3292 129.073 55.8791 128.539 55.2159 127.875C55.737 128.824 55.9976 129.808 55.9976 130.828C55.9976 131.278 55.8791 131.8 55.6423 132.393C55.4764 132.773 55.0027 133.045 54.221 133.211C53.463 133.33 53.0603 133.555 53.0129 133.887C52.9656 134.267 53.2261 134.694 53.7946 135.168L55.1448 136.342C55.5001 136.792 55.6896 137.255 55.7133 137.729C55.7607 138.275 55.5712 138.69 55.1448 138.974C54.6711 139.306 53.9841 138.844 53.084 137.587L51.0587 134.848C50.3007 134.207 48.6663 133.282 46.1554 132.073L48.4294 134.029C48.761 134.314 49.0808 134.729 49.3888 135.275L49.7441 136.022L48.3228 135.061C47.1858 134.326 46.1791 133.709 45.3026 133.211C43.8814 132.452 41.5363 131.468 38.2674 130.259L47.6122 136.982C48.7255 137.86 49.8033 138.939 50.8455 140.219C51.8167 141.452 52.4326 142.46 52.6932 143.243C52.9063 143.836 53.4038 144.452 54.1855 145.093L55.8199 146.338C56.0331 146.575 56.0923 146.919 55.9976 147.369L55.962 149.148C56.0568 149.551 56.2937 149.919 56.6727 150.251L61.9313 144.559L64.2053 142.532L65.4489 141.642L62.8551 145.164L64.8449 145.377L65.3068 145.982L66.7636 143.314L66.6214 144.524C66.4083 145.615 66.0411 146.919 65.52 148.437L67.0478 148.579L67.9716 148.864L68.5757 148.828C69.2626 148.235 69.6298 147.82 69.6771 147.583C69.7008 147.441 69.6534 147.298 69.535 147.156L69.2863 146.836C69.002 146.29 68.9073 145.532 69.002 144.559C69.0968 143.587 69.3455 142.852 69.7482 142.354C70.1272 141.856 70.826 141.298 71.8445 140.682C72.9342 140.041 73.7988 139.721 74.4383 139.721C74.6752 139.721 75.0542 139.852 75.5753 140.113L76.8189 140.682C77.269 140.8 77.648 140.599 77.9559 140.077C78.4771 139.081 78.8797 137.954 79.164 136.697C79.4482 135.369 79.4364 134.551 79.1285 134.243C78.7731 133.887 77.7309 133.318 76.0017 132.535L74.1896 131.504C73.6685 131.148 73.3487 130.78 73.2303 130.401C72.946 129.618 73.2539 128.67 74.1541 127.555C75.3384 126.108 75.599 124.721 74.9358 123.393C74.6515 122.776 73.9646 122.267 72.8749 121.863C72.2117 121.603 71.5248 121.093 70.8141 120.334L69.7127 118.306L68.7888 115.496C68.552 114.642 68.3269 114.215 68.1137 114.215C67.9716 114.215 67.8769 114.547 67.8295 115.211C67.7821 116.089 67.8295 116.954 67.9716 117.808L68.2559 119.516C68.3033 119.848 68.2796 120.061 68.1848 120.156C68.019 120.322 67.8176 120.381 67.5808 120.334C66.9175 120.168 66.3727 119.8 65.9463 119.231C65.4489 118.519 65.0818 117.429 64.8449 115.958C64.6554 114.82 64.2408 113.765 63.6013 112.792L62.713 111.725Z" fill="#EFE908"/>
<path d="M60.0837 92.1952C59.7994 91.1517 59.2428 89.8592 58.4137 88.3177L57.2767 86.29L57.632 91.1992C57.8689 94.7091 57.9163 97.1162 57.7741 98.4206C57.6557 99.5826 57.1346 100.472 56.2107 101.089C54.9553 101.919 54.1144 102.666 53.688 103.33C52.8827 104.61 52.2668 106.567 51.8404 109.199C51.414 111.761 51.3667 113.587 51.6983 114.678C51.9588 115.531 51.8049 116.361 51.2364 117.168L49.9217 118.946C49.7085 119.397 49.673 119.729 49.8151 119.942C50.0994 120.274 50.3481 120.654 50.5613 121.081C50.7745 121.531 50.881 122.101 50.881 122.788C50.881 123.618 50.9995 124.354 51.2364 124.994C51.4732 125.729 52.0062 126.227 52.8353 126.488C53.9012 126.82 54.6 127.152 54.9316 127.484L55.5001 128.231C56.2581 129.037 56.9095 130.069 57.4543 131.326L57.8807 132.678L58.2005 133.318C58.3426 133.365 58.4848 133.235 58.6269 132.927L58.9822 131.646C59.0533 131.148 58.994 130.555 58.8045 129.867L58.1294 127.84L57.3833 125.99L56.9569 124.567L56.9924 123.713L57.2767 123.322C57.4662 123.037 57.5609 122.753 57.5609 122.468L57.3833 121.152C57.3122 120.773 57.3241 120.571 57.4188 120.547C57.632 120.5 57.9281 120.915 58.3071 121.792C58.6624 122.551 58.8045 123.168 58.7335 123.642V124.887C59.2546 126.358 59.7876 127.045 60.3324 126.95C60.7351 126.879 60.8298 126.429 60.6166 125.599L60.439 123.108C60.439 122.444 60.6048 121.875 60.9364 121.401C61.4576 120.713 61.7892 120.12 61.9313 119.622C62.4524 117.796 62.6656 116.053 62.5709 114.393C62.5472 113.848 62.405 113.148 62.1445 112.294C61.8129 111.18 62.1445 111.215 63.1393 112.401C63.8737 113.373 64.3711 114.44 64.6317 115.603C65.058 117.595 65.5437 118.923 66.0885 119.587C66.2543 119.776 66.5148 119.966 66.8701 120.156C67.2728 120.369 67.6045 120.464 67.865 120.44L68.2914 120.156L68.398 119.765L67.9006 116.029C67.8295 114.962 67.9005 114.429 68.1137 114.429C68.2322 114.429 68.3625 114.654 68.5046 115.104L69.002 116.705C69.5705 118.508 70.0443 119.634 70.4233 120.085L71.7735 121.33L73.1237 122.148C73.55 122.314 73.8698 122.48 74.083 122.646C74.3673 122.883 74.6041 123.239 74.7936 123.713C75.149 124.52 75.1845 125.314 74.9002 126.097L73.9054 127.733L73.0881 129.12C72.9223 129.547 72.9105 129.998 73.0526 130.472C73.1473 130.733 73.479 131.089 74.0475 131.539L76.4281 132.891C77.5177 133.294 78.3586 133.78 78.9508 134.35C79.543 134.966 79.1758 136.852 77.8493 140.006C77.6124 140.48 77.2808 140.658 76.8545 140.539L75.7174 140.006C75.1253 139.721 74.616 139.579 74.1896 139.579C73.7159 139.579 72.9105 139.935 71.7735 140.646C70.7075 141.286 70.0087 141.796 69.6771 142.176C69.3455 142.532 69.1086 143.207 68.9665 144.203C68.8244 145.128 68.8244 145.828 68.9665 146.302L69.4639 147.192C69.6061 147.429 69.5824 147.63 69.3929 147.796L68.6822 148.472C68.4454 148.686 68.1966 148.769 67.9361 148.721L66.9767 148.401L65.591 148.259L64.8093 150.358L65.1646 150.287C65.7095 150.168 66.3964 150.547 67.2255 151.425L69.0731 153.097C69.8074 153.287 71.2287 152.682 73.3368 151.283C73.7158 151.022 73.8935 150.678 73.8698 150.251C73.8224 149.563 73.8698 149.03 74.0119 148.65C74.2251 148.034 74.6515 147.559 75.2911 147.227C76.1201 146.919 76.7834 146.622 77.2808 146.338L79.9812 146.48L82.5395 147.512C83.1317 147.654 83.7594 147.251 84.4226 146.302C84.9201 145.567 85.3346 144.713 85.6662 143.741L86.1992 141.856C86.2939 141.263 86.1637 140.682 85.8083 140.113C85.4767 139.567 85.2872 138.251 85.2398 136.164L85.3109 131.753C85.3109 130.97 85.0385 130.188 84.4937 129.405L82.8592 126.808C82.4329 125.931 82.3144 125.018 82.5039 124.069C82.7645 122.717 82.8829 121.828 82.8592 121.401C82.8119 120.761 82.4447 119.575 81.7578 117.844C81.1182 116.255 80.834 115.14 80.905 114.5C80.9524 113.859 81.3669 112.472 82.1486 110.338C82.954 108.085 83.4159 106.626 83.5343 105.962C83.6765 105.085 83.7357 104.112 83.712 103.045L83.6765 101.693L83.4988 102.369C83.3093 102.938 83.0369 103.531 82.6816 104.148C82.3973 104.67 81.9117 105.215 81.2248 105.784C80.4668 106.401 79.922 106.958 79.5904 107.456C79.2587 107.954 79.0337 108.559 78.9153 109.27C78.5836 107.278 78.477 105.796 78.5955 104.824C78.6665 104.183 79.1403 103.519 80.0167 102.832L82.2197 101.373C82.6934 101.041 83.5936 100.282 84.9201 99.0965L86.8032 97.4245L85.0622 98.2783C83.8067 98.8949 82.9066 99.2743 82.3618 99.4166L80.7629 99.5233L79.2706 99.2388C78.2994 99.0965 77.1979 99.6419 75.9662 100.875C75.7293 101.112 75.5516 101.598 75.4332 102.334C75.2911 103.116 74.9831 103.84 74.5094 104.504C73.6329 105.689 73.1355 106.614 73.0171 107.278C73.8935 101.587 74.3909 98.0293 74.5094 96.6063C74.5804 95.6577 74.1896 94.1162 73.3368 91.9818C72.7683 90.4877 72.0577 88.9106 71.205 87.2505C70.7312 86.3019 70.3759 84.4402 70.139 81.6655L69.9258 77.7524L69.4995 78.7841C69.2152 79.6378 69.0731 80.4442 69.0731 81.2031C69.0731 81.8434 68.931 82.9106 68.6467 84.4047L68.1137 87.7486C67.9953 89.0529 67.8887 89.5984 67.794 89.3849C67.4623 88.9581 67.1307 88.2466 66.7991 87.2505C66.4675 86.2782 66.5267 84.3691 66.9767 81.5232L66.6214 82.9817L65.6621 85.792C65.3305 86.5272 65.2357 87.4877 65.3778 88.6735L65.8042 91.6972C65.8753 92.5035 65.5318 93.4877 64.7738 94.6498L62.8551 97.2822C62.1919 98.2546 61.8128 99.3455 61.7181 100.555C61.268 99.7961 60.9364 98.9186 60.7232 97.9225L60.51 95.4324C60.4627 94.1992 60.3205 93.1201 60.0837 92.1952Z" fill="#E50020"/>
<path d="M153.886 225.026C157.013 222.749 159.891 220.33 162.52 217.769L165.541 214.567L137.897 207.132C135.292 212.041 131.975 216.441 127.948 220.33C121.624 226.401 114.375 230.243 106.203 231.856C90.6879 234.891 75.9542 231.5 62.0023 221.682C59.0887 219.618 56.3646 217.057 53.8301 213.998C62.5708 226.543 73.0288 234.346 85.2042 237.405C90.3444 238.709 96.2426 239.314 102.899 239.219L122.05 237.761C133.254 236.48 143.866 232.235 153.886 225.026Z" fill="#DDD583"/>
<path d="M134.984 206.421L122.441 203.006C119.22 208.863 114.293 213.571 107.66 217.128C100.862 220.757 93.3646 222.571 85.1687 222.571C78.0388 222.571 71.3826 221.172 65.2001 218.373C59.2072 215.646 54.3749 211.935 50.7033 207.239C53.759 212.788 57.7741 217.247 62.7485 220.615C76.4636 229.887 90.8774 233.042 105.99 230.077C113.783 228.536 120.487 224.883 126.101 219.12C129.228 215.895 132.189 211.662 134.984 206.421Z" fill="#D18200"/>
<path d="M64.9515 145.093L65.4489 142.282L63.9921 143.563L62.713 145.377L58.4137 151.176C54.6948 156.488 51.6154 162.701 49.1756 169.816C46.8305 176.646 45.658 182.563 45.658 187.567C45.658 194.54 47.3398 201.097 50.7034 207.239C54.375 211.935 59.2073 215.646 65.2002 218.374C71.3827 221.172 78.0389 222.571 85.1688 222.571C93.3647 222.571 100.862 220.757 107.66 217.129C114.293 213.571 119.22 208.864 122.441 203.006L107.838 199.057L107.056 199.804C105.73 200.706 103.077 202.129 99.0971 204.073C93.341 206.895 87.3007 207.358 80.9761 205.461C73.3487 203.184 66.9294 197.694 61.7181 188.99C58.3545 183.37 57.0754 176.706 57.8807 168.998C58.4729 163.448 60.0718 157.674 62.6775 151.674C63.9803 148.686 65.0936 146.409 66.0174 144.844L66.3727 143.172L64.9515 145.093Z" fill="#F29600"/>
<path d="M128.304 216.666C130.578 213.939 132.804 210.524 134.984 206.421L107.873 199.093L107.767 199.271C107.553 199.508 107.044 199.864 106.239 200.338C105.765 202.425 105.528 204.536 105.528 206.67C105.528 210.678 106.322 214.496 107.909 218.125C109.448 221.635 111.616 224.718 114.411 227.374C119.693 224.979 124.324 221.409 128.304 216.666Z" fill="#D18200"/>
<path d="M158.612 221.362C160.033 218.943 161.099 216.346 161.81 213.571L137.897 207.132C135.978 210.808 133.562 214.259 130.649 217.484C126.314 222.369 121.387 226.105 115.868 228.69C118.378 230.753 121.126 232.342 124.111 233.456C127.238 234.619 130.471 235.211 133.811 235.235C142.67 232.413 150.937 227.788 158.612 221.362Z" fill="#DDD583"/>
<path d="M191.692 38.337L202.031 49.7916C202.458 50.3845 202.671 52.0564 202.671 54.8074C202.671 57.8905 202.363 61.1039 201.747 64.4478C201.368 66.6297 200.515 69.4399 199.189 72.8787C197.839 76.436 196.678 78.8076 195.707 79.9934L190.448 85.9341L185.58 91.448C184.846 92.5152 184.325 94.282 184.017 96.7484C183.354 101.088 182.809 103.887 182.382 105.144C181.79 106.851 181.056 108.5 180.179 110.088C179.54 111.227 178.581 112.756 177.301 114.677C175.572 117.215 173.571 119.646 171.297 121.97L169.733 121.33L167.85 121.223C167.211 121.436 166.76 122.029 166.5 123.002L166.038 125.421L163.8 126.915C163.349 127.223 163.065 127.674 162.947 128.266C162.876 128.812 163.006 129.31 163.338 129.761L168.525 136.484L171.794 144.772C172.055 145.46 172.552 145.863 173.286 145.982C173.618 146.053 174.104 145.935 174.743 145.626L176.022 144.772C178.533 141.737 181.115 138.986 183.768 136.519C187.748 132.844 190.922 130.78 193.291 130.33C195.02 129.998 196.796 130.14 198.62 130.757C199.165 130.97 200.586 131.646 202.884 132.784C204.305 133.496 205.336 133.934 205.975 134.1C207.041 134.385 207.989 134.314 208.818 133.887C209.505 133.531 209.896 132.927 209.99 132.073L209.919 130.436L209.742 129.654C209.528 128.278 209.86 126.772 210.736 125.136C211.305 124.14 212.406 123.132 214.041 122.112C216.457 120.571 219.169 119.8 222.177 119.8C229.118 119.8 236.437 122.693 244.136 128.48C248.518 131.753 252.308 135.322 255.506 139.187C255.624 140.184 255.624 141.405 255.506 142.852L255.293 145.164C255.293 146.35 255.577 147.393 256.145 148.294C256.738 149.219 257.448 149.682 258.277 149.682C259.059 149.682 259.758 149.385 260.374 148.792C261.155 148.057 261.605 146.99 261.724 145.591L261.759 145.377C262.257 139.733 262.577 135.274 262.719 132.002C262.813 129.796 262.813 128.468 262.719 128.017C262.292 125.1 261.345 120.488 259.876 114.179C258.502 108.25 257.259 103.341 256.145 99.452C255.174 96.037 253.611 91.4006 251.455 85.5428C249.442 80.0645 248.127 76.7799 247.511 75.689C246.706 74.2424 243.484 70.2344 237.847 63.6652C232.28 57.1909 228.798 53.3845 227.401 52.2462C226.24 51.2975 224.392 50.254 221.858 49.1157L219.584 48.0841C218.613 47.6335 218.02 47.3252 217.807 47.1592L208.995 40.3291L199.899 33.3923C198.123 32.1116 196.429 31.3409 194.818 31.08C193.137 30.8191 191.881 31.163 191.052 32.1116C190.436 32.8231 190.152 33.748 190.199 34.8864C190.27 36.167 190.768 37.3172 191.692 38.337Z" fill="#0D131A"/>
<path d="M227.649 67.6848C222.462 63.2737 219.43 60.8785 218.553 60.499C217.369 60.333 215.711 60.5227 213.579 61.0682C211.423 61.6374 210.144 62.2421 209.741 62.8824C209.481 63.3805 207.977 67.9576 205.229 76.6138L203.275 82.4478C202.777 83.7521 199.307 87.2146 192.864 92.8352C192.035 93.5704 190.969 96.1672 189.666 100.626L188.813 103.472L187.143 109.91L184.869 119.266C184.372 121.187 183.922 122.278 183.519 122.539C181.932 123.63 180.132 125.326 178.119 127.626C177.74 128.077 176.934 129.808 175.702 132.82L172.362 141.251L173.606 144.061C175.548 141.903 177.799 139.673 180.357 137.373C185.474 132.796 189.571 130.223 192.651 129.654C195.588 129.108 198.81 129.63 202.315 131.219L205.584 132.749C206.603 133.152 207.361 133.223 207.858 132.962C208.119 132.82 208.296 132.333 208.391 131.503L208.462 130.33C208.296 129.95 208.214 129.428 208.214 128.764C208.214 127.46 208.604 126.084 209.386 124.638C210.049 123.381 211.376 122.207 213.366 121.116C215.971 119.669 218.944 118.946 222.284 118.946C229.011 118.946 235.952 121.377 243.105 126.239C247.535 129.25 251.657 132.879 255.47 137.124C255.21 127.543 254.925 122.171 254.617 121.009C253.599 116.859 251.42 110.041 248.08 100.555C243.626 87.9617 240.061 79.9695 237.385 76.5782C236.248 75.1552 233.003 72.1908 227.649 67.6848Z" fill="#008086"/>
<g filter="url(#filter1_d_1_54688)">
<path d="M193.539 37.4123C199.509 43.768 203.073 47.6692 204.234 49.1159C204.992 50.0882 205.241 52.3887 204.98 56.0171C204.815 58.4361 204.436 61.2464 203.843 64.448C203.464 66.6061 202.505 69.5232 200.965 73.1991C199.402 76.8987 198.052 79.4481 196.915 80.8473L187.179 92.2308C186.516 93.1083 185.936 95.053 185.438 98.0648C184.822 101.764 184.348 104.089 184.017 105.037C183.401 106.84 182.773 108.44 182.134 109.84L179.753 114.464C178.877 116.101 177.408 118.164 175.347 120.654C173.429 122.954 172.28 124.176 171.901 124.318L170.622 123.927C170.006 123.618 169.52 123.524 169.165 123.642C168.502 123.856 168.063 124.84 167.85 126.595L164.901 128.551L170.231 135.524L170.977 137.373C173.843 130.899 175.691 127.199 176.52 126.275C179.054 123.358 181.139 121.354 182.773 120.263C183.223 119.741 184.372 115.852 186.22 108.595L187.925 102.049L188.778 99.2388L190.093 95.0767C190.614 93.8198 191.218 92.883 191.905 92.2664L197.377 86.9304C200.03 84.2031 201.475 82.5193 201.711 81.879L203.666 76.1161C206.792 66.7247 208.498 61.8156 208.782 61.3887C209.398 60.3689 210.997 59.5389 213.579 58.8986C215.924 58.3294 217.807 58.1515 219.228 58.365C220.105 58.5073 223.409 61.0923 229.142 66.12C234.685 70.9579 237.965 74.0291 238.984 75.3335C241.897 79.0331 245.593 87.5944 250.07 101.017C252.32 107.729 254.286 114.144 255.968 120.263C256.347 121.828 256.667 128.029 256.927 138.867L257.247 145.164C257.247 145.709 257.354 146.184 257.567 146.587C257.78 146.966 258.017 147.156 258.277 147.156C258.609 147.156 258.846 147.061 258.988 146.871C259.249 146.587 259.414 146.041 259.485 145.235L259.947 137.978L260.338 131.041C260.314 128.528 259.628 124.033 258.277 117.559C257.093 111.772 255.944 107.029 254.831 103.33C253.173 97.7803 251.183 91.8395 248.862 85.5075C246.919 80.29 245.687 77.207 245.166 76.2584C244.432 74.9303 241.412 71.124 236.106 64.8393C230.776 58.5073 227.46 54.8195 226.157 53.776C225.067 52.8985 222.912 51.7365 219.69 50.2898C218.08 49.5546 216.575 48.9143 215.178 48.3689L199.437 35.3846C198.135 34.2937 196.832 33.5466 195.529 33.1435C194.179 32.7403 193.291 32.8352 192.864 33.428C192.011 34.6613 192.236 35.9893 193.539 37.4123Z" fill="#F29600"/>
</g>
<path d="M210.523 71.4556C211.068 71.1947 211.873 70.9457 212.939 70.7086L215.569 70.3173C217.227 71.4556 220.235 73.8865 224.593 77.6098C229.189 81.5229 231.937 84.0486 232.837 85.1869C235.324 88.3411 238.77 96.0961 243.176 108.452C246.54 117.796 248.755 124.543 249.821 128.693L250.034 131.681C251.834 133.318 253.646 135.132 255.47 137.124C255.21 127.543 254.925 122.171 254.617 121.009C253.599 116.859 251.42 110.041 248.08 100.555C243.626 87.9617 240.061 79.9695 237.385 76.5782C236.248 75.1552 233.003 72.1908 227.649 67.6848C222.462 63.2737 219.43 60.8785 218.553 60.499C217.369 60.333 215.711 60.5227 213.579 61.0682C211.423 61.6374 210.144 62.2421 209.741 62.8824C209.481 63.3805 207.977 67.9576 205.229 76.6138L203.275 82.4478C202.777 83.7521 199.307 87.2146 192.864 92.8352C192.035 93.5704 190.969 96.1672 189.666 100.626L188.813 103.472L187.143 109.91L184.869 119.266C184.372 121.187 183.922 122.278 183.519 122.539C181.932 123.63 180.132 125.326 178.119 127.626C177.74 128.077 176.934 129.808 175.702 132.82L172.362 141.251L173.606 144.061L176.697 140.859C177.74 138.251 178.415 136.721 178.723 136.27C180.57 134.136 182.122 132.666 183.377 131.859C184.206 131.29 184.846 130.401 185.296 129.191C185.627 128.337 186.16 126.369 186.895 123.286L188.352 117.274L189.986 111.049L190.874 108.061C191.443 106.116 191.999 103.733 192.544 100.91L193.184 97.2819L203.097 88.7443C204.779 87.2028 205.868 85.6968 206.366 84.2265L210.523 71.4556Z" fill="#00666C"/>
<path d="M10.5528 100.733C9.74742 102.796 8.74071 107.788 7.53264 115.709C6.37195 123.298 5.79161 128.314 5.79161 130.757V131.54L5.89821 147.085C6.20615 150.002 7.4379 151.437 9.59348 151.39C10.541 151.366 11.216 150.927 11.6187 150.073C11.9977 149.267 12.1873 147.939 12.1873 146.089C12.1873 144.927 12.3057 143.86 12.5426 142.887C17.3038 138.192 22.3018 133.508 27.5368 128.836C34.6431 122.528 39.4042 118.852 41.8204 117.808C44.7339 116.551 48.3463 116.006 52.6574 116.172C56.1869 116.338 58.6978 116.788 60.1901 117.524C60.877 117.856 62.5588 119.611 65.2355 122.789L68.3268 126.168C69.0374 126.856 69.7006 127.235 70.3165 127.306L71.6667 127.128L73.763 126.239C77.3635 124.674 79.9929 123.666 81.651 123.215C85.5121 122.196 88.7809 122.231 91.4576 123.322C95.2476 124.864 99.4759 127.235 104.142 130.437C107.695 132.879 110.076 134.706 111.284 135.915C111.687 136.366 112.907 138.583 114.944 142.567L121.055 154.627C121.363 155.196 122.05 155.504 123.116 155.552C123.874 155.552 124.466 155.231 124.893 154.591L140.988 127.484C141.367 126.868 141.391 126.239 141.059 125.599C140.704 124.935 140.171 124.579 139.46 124.532L132.603 124.354C131.608 121.437 130.755 119.705 130.045 119.16C129.642 118.875 128.872 118.638 127.735 118.449L124.431 118.52L118.746 114.749L110.112 108.488C105.398 104.883 101.371 100.982 98.0309 96.7844C97.4387 95.3852 96.4794 92.2429 95.1529 87.3574C93.7553 82.1874 92.4407 76.8514 91.2089 71.3494C90.0719 66.2506 89.1244 61.1399 88.3664 56.0173C87.6795 51.3453 87.3715 48.3572 87.4426 47.0528C87.49 46.3414 88.1888 44.9303 89.5389 42.8196C91.0076 40.4955 92.9855 37.7682 95.4727 34.6377C96.4676 33.4045 97.119 32.1001 97.4269 30.7246C97.8059 29.0646 97.569 27.6179 96.7163 26.3847C96.0767 25.4598 95.2832 24.9143 94.3357 24.7483C93.2934 24.5823 92.1446 24.7958 90.8891 25.3886C89.8232 25.8867 88.8402 26.5507 87.94 27.3807L82.1484 32.9658L76.6055 38.3373C76.416 38.5034 75.587 38.7287 74.1184 39.0132L71.2048 39.618C70.5178 39.8314 67.7582 41.1832 62.926 43.6734L55.038 47.5864C52.7166 48.3216 50.3479 48.8315 47.9318 49.1161L45.0892 49.5074C43.9996 49.6971 43.3127 49.9343 43.0284 50.2189C41.3703 51.7841 38.0541 56.8711 33.0797 65.4798L22.7045 83.8001C20.5726 87.476 17.9433 91.2824 14.8166 95.2192L10.5528 100.733Z" fill="#0D131A"/>
<path d="M18.9382 93.8313L15.5983 98.3491L12.8624 102.511C12.0807 104.48 11.0384 109.14 9.73563 116.492C8.43282 123.772 7.7814 128.527 7.7814 130.756V138.547L7.888 146.444C7.98274 147.274 8.13673 147.879 8.34991 148.259C8.63417 148.757 9.04871 148.994 9.59352 148.97C9.94882 148.946 10.2094 148.472 10.3752 147.547C10.4936 146.907 10.5528 146.195 10.5528 145.413L10.6239 142.247L13.04 116.029V115.887C15.3851 107.207 20.2766 96.3333 27.7145 83.266C34.4654 71.4319 39.8544 63.5109 43.8812 59.503C44.9946 58.3647 49.9808 56.3133 58.8399 53.3488C67.0358 50.5741 71.3943 49.1867 71.9154 49.1867C73.3841 49.0682 74.8764 49.3883 76.3924 50.1472C77.9084 50.9298 79.0691 51.9733 79.8745 53.2777C80.6798 54.5583 82.8354 61.8627 86.3412 75.1909C87.3834 79.2462 88.5086 85.2581 89.7166 93.2266C90.4036 97.7325 90.8536 100.199 91.0668 100.626C91.4458 101.337 94.4068 103.685 99.9497 107.669L104 110.658C104.806 111.322 105.658 112.377 106.558 113.824C107.032 114.559 107.707 115.756 108.584 117.416L109.365 118.875C109.484 119.017 110.112 119.219 111.249 119.48C113.475 120.025 115.276 120.535 116.649 121.009C118.45 121.626 120.807 124.543 123.72 129.76C125.662 133.247 127.7 137.468 129.831 142.425L139.318 126.488L131.111 125.847L130.293 123.535C129.678 121.946 129.156 120.997 128.73 120.689C128.138 120.286 127.143 120.096 125.745 120.12L123.862 120.262L117.147 115.709L108.939 110.088C107.968 109.353 105.658 107.219 102.01 103.685C98.3863 100.152 96.4794 98.1831 96.2899 97.7799C95.0819 95.1712 92.8434 86.7048 89.5745 72.3806C86.2109 57.582 84.6593 48.8666 84.9199 46.2341C85.0147 45.3092 86.3412 43.0563 88.8994 39.4752L93.7317 33.1431C94.4186 32.2894 94.8924 31.3052 95.1529 30.1906C95.4609 29.0048 95.4135 28.0562 95.0108 27.3447C94.6081 26.6569 93.8027 26.5502 92.5947 27.0245C91.5287 27.4277 90.4391 28.1392 89.3258 29.1589L83.5697 35.0285L78.2756 40.4001L75.2554 40.8981L71.0982 41.7875C70.127 42.1195 65.0816 44.4792 55.9619 48.8666L49.7794 50.6097C46.629 51.416 44.9235 51.9377 44.6629 52.1749C42.4126 54.333 37.5803 61.7441 30.1661 74.4082L18.9382 93.8313Z" fill="#F29600"/>
<path d="M14.2481 116.314L12.0452 140.86C16.9722 136.211 21.6978 131.919 26.2222 127.982C33.5416 121.626 38.516 117.879 41.1453 116.741C44.3431 115.365 48.2042 114.832 52.7285 115.14C56.329 115.377 59.0294 115.946 60.8297 116.848C61.6114 117.227 63.2695 118.816 65.804 121.614C68.1491 124.176 69.7717 125.539 70.6718 125.705C71.2167 125.824 72.2826 125.563 73.8697 124.923L78.8085 122.931C83.7829 121.176 88.1059 121.045 91.7775 122.539C95.8517 124.223 100.293 126.512 105.102 129.405C109.152 131.848 111.687 133.555 112.705 134.527C113.321 135.144 115.252 138.5 118.497 144.595L123.187 153.559L128.055 145.733C124.597 137.124 122.678 132.393 122.299 131.539C120.025 126.464 118.189 123.689 116.792 123.215C115.797 122.859 113.831 122.373 110.893 121.757L109.117 121.294L108.051 120.512L107.127 118.84L105.493 115.069C104.711 113.385 104 112.27 103.361 111.725L101.549 110.587L98.9903 108.986L92.6302 104.29C90.901 102.938 89.8943 101.966 89.61 101.373L88.9705 98.8474L88.1177 93.4758L86.9097 85.0093C86.3648 81.4046 85.7845 78.4283 85.1686 76.0804L81.3668 61.5665C80.2298 57.3451 79.531 55.021 79.2704 54.5941C78.6309 53.5981 77.5175 52.8036 75.9305 52.2107C74.4855 51.6415 73.1354 51.4162 71.8799 51.5348C70.6955 51.7245 66.3844 53.1 58.9465 55.6613C50.8217 58.4361 46.3092 60.274 45.4091 61.1752C41.2874 65.3254 35.863 73.0567 29.1357 84.369C21.4847 97.2229 16.5221 107.871 14.2481 116.314Z" fill="#008086"/>
<path d="M17.8368 135.488L18.7961 124.852C21.0227 116.67 25.8669 106.318 33.3284 93.796C39.8662 82.8631 45.0775 75.4164 48.9622 71.4559C50.1229 70.6496 54.1972 69.0488 61.185 66.6535C67.4385 64.5191 71.5957 63.191 73.6565 62.6693C74.3671 62.6456 75.1488 62.7997 76.0015 63.1317C76.8543 63.44 77.4346 63.7721 77.7426 64.1278C78.0979 65.0764 79.5665 70.4836 82.1485 80.3492L83.2855 84.7959C84.0435 87.6655 84.8133 91.9699 85.595 97.709L86.1635 101.836L87.1939 107.919C87.4308 109.199 87.7032 110.124 88.0111 110.693C88.4375 111.571 89.385 112.626 90.8536 113.859L98.3863 119.551L101.406 121.436L102.579 122.148C111.059 129.784 115.82 133.78 116.863 134.136C118.189 135.227 120.83 140.836 124.786 150.962V150.998L128.055 145.733C124.597 137.124 122.678 132.393 122.299 131.539C120.025 126.464 118.189 123.689 116.792 123.215C115.797 122.859 113.831 122.373 110.893 121.757L109.117 121.294L108.051 120.512L107.127 118.84L105.493 115.069C104.711 113.385 104 112.27 103.361 111.725L101.549 110.587L98.9903 108.986L92.6302 104.29C90.901 102.938 89.8943 101.966 89.61 101.373L88.9705 98.8474L88.1177 93.4758L86.9097 85.0093C86.3648 81.4046 85.7845 78.4283 85.1686 76.0804L81.3668 61.5665C80.2298 57.3451 79.531 55.021 79.2704 54.5941C78.6309 53.5981 77.5175 52.8036 75.9305 52.2107C74.4855 51.6415 73.1354 51.4162 71.8799 51.5348C70.6955 51.7245 66.3844 53.1 58.9465 55.6613C50.8217 58.4361 46.3092 60.274 45.4091 61.1752C41.2874 65.3254 35.863 73.0567 29.1357 84.369C21.4847 97.2229 16.5221 107.871 14.2481 116.314L12.0452 140.86L17.8368 135.488Z" fill="#00666C"/>
<path d="M234.436 142.78L235.146 142.638L236.39 141.749C237.219 140.8 237.574 139.626 237.456 138.227C237.385 137.278 236.52 135.725 234.862 133.567C233.488 131.764 232.458 130.579 231.771 130.01L231.487 129.761L232.908 125.883L233.121 125.456C233.453 124.768 233.642 124.164 233.69 123.642C233.737 122.978 233.607 122.231 233.299 121.401C232.73 120.002 231.759 119.017 230.385 118.448C229.438 118.069 228.087 117.903 226.335 117.95L223.599 118.27C222.793 118.602 221.479 120.061 219.655 122.646L219.051 122.895L218.269 123.108L215.64 121.863C214.432 120.962 213.543 120.405 212.975 120.191C212.217 119.907 211.364 119.895 210.416 120.156C209.114 120.488 208 121.733 207.077 123.891C206.271 125.812 205.987 127.33 206.224 128.444C206.319 128.942 206.638 129.761 207.183 130.899L208.782 134.029L209.173 134.741L209.066 135.559C204.305 139.851 201.202 141.808 199.757 141.429L196.986 140.753C195.114 140.278 193.338 139.685 191.656 138.974C188.885 137.812 186.516 136.65 184.55 135.488C183.981 133.994 183.507 132.962 183.128 132.393C182.157 131.017 180.736 129.927 178.865 129.12C177.278 128.432 174.696 128.053 171.119 127.982C169.011 127.934 167.139 127.97 165.505 128.089L162.876 128.338L171.972 147.903L173.322 147.654L179.469 145.662L183.519 147.689L189.204 150.429L191.62 151.709L193.681 152.954C195.932 154.14 197.708 154.792 199.011 154.911C201.996 155.124 205.608 153.962 209.848 151.425C212.477 149.836 215.178 147.844 217.949 145.448C218.826 145.946 219.619 146.207 220.33 146.231C221.325 146.278 222.414 145.958 223.599 145.271C224.286 144.891 225.044 144.156 225.873 143.065L227.472 140.682L228.324 142.425L228.928 143.065L234.436 142.78Z" fill="#0D131A"/>
<path d="M234.365 140.931C234.649 140.931 234.921 140.824 235.182 140.611C235.727 140.184 235.964 139.472 235.892 138.476C235.845 137.765 235.585 137.03 235.111 136.271L233.299 133.959L231.025 131.789L229.603 130.508C229.343 130.105 229.888 128.326 231.238 125.172C231.854 123.749 232.162 122.8 232.162 122.326C232.185 121.211 231.416 120.334 229.852 119.694L226.583 119.516L224.203 119.907L222.71 121.615L221.147 123.713C220.673 124.377 219.832 124.757 218.624 124.852L215.249 123.215C214.443 122.599 213.745 122.231 213.152 122.113L211.163 122.29C210.428 122.48 209.718 123.405 209.031 125.065C208.391 126.63 208.143 127.757 208.285 128.445C208.379 128.966 208.77 129.915 209.457 131.291L210.807 133.959C211.139 134.623 211.092 135.5 210.665 136.591L206.153 140.184C202.813 142.508 200.302 143.445 198.62 142.994L195.316 141.856L190.341 139.935L183.022 136.84C182.903 136.2 182.584 135.464 182.063 134.634C180.997 132.974 179.386 131.682 177.23 130.757C175.785 130.14 173.417 129.82 170.124 129.796L165.647 129.939L173.038 145.876L178.261 143.136C183.14 145.674 187.025 147.536 189.915 148.721C190.957 149.172 192.746 150.05 195.28 151.354C196.938 152.231 198.158 152.694 198.94 152.741C201.64 152.955 205.039 151.816 209.137 149.326C211.648 147.785 214.207 145.887 216.812 143.634C216.907 143.563 216.788 143.231 216.457 142.638L215.924 141.749L217.807 143.065C218.139 143.445 218.612 143.729 219.228 143.919C220.436 144.322 221.763 144.121 223.208 143.314C224.44 142.603 225.47 141.583 226.299 140.255L227.152 138.476L229.675 141.18L234.365 140.931Z" fill="#F29600"/>
<path d="M211.234 129.085L214.112 130.828C215.723 131.611 216.836 132.014 217.452 132.037C217.831 132.037 218.151 131.931 218.411 131.717C218.861 131.243 218.92 130.033 218.589 128.089C218.281 126.286 217.914 125.029 217.487 124.318C216.919 123.44 216.149 122.8 215.178 122.397L212.442 122.29C211.613 122.599 211.009 123.168 210.63 123.998C210.298 124.709 210.203 125.48 210.346 126.31L210.417 126.808C210.559 127.875 210.831 128.634 211.234 129.085Z" fill="#0D131A"/>
<path d="M212.548 122.574L215.071 122.717C215.971 123.096 216.682 123.689 217.203 124.495C217.606 125.136 217.961 126.333 218.269 128.088C218.577 129.962 218.541 131.088 218.162 131.468C217.997 131.634 217.772 131.717 217.487 131.717C216.919 131.693 215.841 131.302 214.254 130.543C212.714 129.784 211.79 129.227 211.482 128.871C211.103 128.444 210.855 127.744 210.736 126.772L210.665 126.274C210.547 125.491 210.63 124.768 210.914 124.104C211.246 123.369 211.79 122.859 212.548 122.574ZM217.772 124.14C217.156 123.191 216.327 122.515 215.284 122.112L212.335 121.97C211.554 122.278 210.949 122.788 210.523 123.499C210.144 124.14 209.955 124.851 209.955 125.634L210.097 126.879C210.239 127.993 210.535 128.8 210.985 129.298C211.34 129.725 212.335 130.329 213.97 131.112C215.651 131.918 216.812 132.333 217.452 132.357C217.925 132.381 218.316 132.239 218.624 131.93C219.169 131.385 219.264 130.08 218.909 128.017C218.601 126.191 218.222 124.899 217.772 124.14Z" fill="#0D131A"/>
<path d="M213.046 127.235C213.472 127.756 215.06 129.013 217.807 131.005C218.02 130.792 218.032 129.879 217.843 128.266C217.63 126.63 217.345 125.48 216.99 124.816C216.587 124.128 216.019 123.606 215.285 123.25C214.527 122.871 213.828 122.8 213.188 123.037C212.501 123.274 212.028 123.748 211.767 124.46C211.838 125.124 211.992 125.681 212.229 126.132L213.046 127.235Z" fill="white"/>
<path d="M212.193 128.267C212.454 128.599 213.389 129.18 215 130.01C216.682 130.864 217.618 131.196 217.807 131.006C215.059 129.014 213.472 127.757 213.046 127.235L212.229 126.132C211.992 125.682 211.838 125.124 211.767 124.46C211.601 124.911 211.542 125.397 211.589 125.919L211.767 127.271L212.193 128.267Z" fill="#DBDCDC"/>
<path d="M234.898 138.085C234.424 137.682 233.749 137.397 232.872 137.231C231.949 137.065 231.143 137.255 230.456 137.8C229.983 138.18 229.651 138.654 229.461 139.223L227.614 142.14C227.353 142.425 226.879 142.686 226.193 142.923L225.091 143.243L225.588 144.275C226.11 145.342 227.626 145.804 230.137 145.662L233.015 145.271C234.009 144.962 234.803 144.369 235.395 143.492C235.798 142.899 236.047 142.223 236.141 141.464C236.236 140.729 236.153 140.089 235.893 139.543L235.786 139.365C235.549 138.82 235.253 138.393 234.898 138.085Z" fill="#0D131A"/>
<path d="M234.791 138.227C235.099 138.488 235.383 138.879 235.644 139.401L235.75 139.614C235.987 140.136 236.07 140.752 235.999 141.464C235.904 142.199 235.668 142.851 235.289 143.42C234.696 144.25 233.927 144.808 232.979 145.092L230.137 145.484C227.673 145.626 226.216 145.199 225.766 144.203L225.304 143.349L226.228 143.065C226.986 142.804 227.495 142.531 227.756 142.246C228.088 141.867 228.692 140.918 229.568 139.401L229.604 139.365L229.71 139.187C229.9 138.642 230.219 138.191 230.669 137.835C231.285 137.361 232.02 137.207 232.872 137.373C233.701 137.539 234.341 137.823 234.791 138.227ZM235.537 143.598C236.082 142.792 236.354 141.914 236.354 140.966C236.354 140.397 236.248 139.899 236.035 139.472L235.928 139.294C235.644 138.701 235.336 138.262 235.004 137.978C234.507 137.527 233.808 137.219 232.908 137.053C232.008 136.887 231.226 137.053 230.563 137.551C230.065 137.906 229.686 138.393 229.426 139.009L227.507 142.033C227.27 142.318 226.808 142.555 226.121 142.744L225.056 143.1L224.949 143.171L224.913 143.242L225.446 144.345C225.991 145.46 227.555 145.946 230.137 145.804L233.05 145.412C234.092 145.08 234.921 144.476 235.537 143.598Z" fill="#0D131A"/>
<path d="M234.969 139.97L234.4 139.08C234.045 138.748 233.512 138.523 232.801 138.404C232.067 138.262 231.487 138.452 231.06 138.974C230.823 139.211 230.669 139.472 230.598 139.756L229.817 141.072L228.609 142.851C228.23 143.278 227.614 143.622 226.761 143.883C231.025 144.499 233.761 143.195 234.969 139.97Z" fill="white"/>
<path d="M234.649 142.993C234.957 142.543 235.147 142.033 235.218 141.464C235.265 140.942 235.206 140.503 235.04 140.148L234.969 139.97C233.761 143.195 231.025 144.499 226.761 143.883C226.832 144.049 227.045 144.203 227.401 144.345L230.279 144.665L232.766 144.381C233.548 144.144 234.175 143.681 234.649 142.993Z" fill="#DBDCDC"/>
<path d="M226.726 122.219C225.991 123.049 225.683 124.009 225.802 125.1C225.873 126.072 226.169 126.76 226.69 127.163L228.218 128.586L229.746 130.294C230.03 130.744 230.196 131.491 230.243 132.535L230.492 133.46L231.522 133.424C232.138 133.234 232.73 132.867 233.299 132.321C234.436 131.207 235.004 129.701 235.004 127.804C235.004 126.001 234.235 124.057 232.695 121.97C232.505 121.709 232.115 121.46 231.522 121.223C230.978 121.033 230.468 120.926 229.994 120.902C228.668 120.831 227.578 121.27 226.726 122.219Z" fill="#0D131A"/>
<path d="M232.979 121.792C232.742 121.46 232.292 121.175 231.629 120.938L230.03 120.582C228.561 120.511 227.377 120.985 226.477 122.005C225.719 122.883 225.375 123.926 225.446 125.136C225.565 126.179 225.908 126.95 226.477 127.448L227.969 128.8C228.774 129.606 229.272 130.163 229.461 130.472C229.722 130.851 229.876 131.563 229.923 132.606L230.172 133.531L230.279 133.709L231.522 133.744H231.593C232.185 133.626 232.825 133.223 233.512 132.535C234.72 131.373 235.324 129.796 235.324 127.804C235.324 125.978 234.542 123.974 232.979 121.792ZM228.431 128.373L226.903 126.914C226.453 126.582 226.192 125.966 226.121 125.065L226.086 124.78C226.086 123.926 226.382 123.144 226.974 122.432C227.708 121.602 228.715 121.199 229.994 121.223L231.38 121.543L232.446 122.183C233.938 124.223 234.684 126.096 234.684 127.804C234.684 129.559 234.175 130.958 233.157 132.001C232.612 132.571 232.043 132.938 231.451 133.104L230.74 133.14L230.563 132.499C230.563 131.48 230.385 130.685 230.03 130.116C229.817 129.784 229.284 129.203 228.431 128.373Z" fill="#0D131A"/>
<path d="M228.147 125.919L230.314 127.875C231.262 129.085 231.487 130.52 230.989 132.18V132.357C231.439 132.215 231.901 131.919 232.375 131.468C233.299 130.543 233.761 129.274 233.761 127.662C233.761 126.713 233.512 125.67 233.015 124.531C232.636 123.678 232.209 122.942 231.735 122.326C231.428 121.946 230.764 121.757 229.746 121.757C228.609 121.78 227.768 122.112 227.223 122.753L226.868 123.215C227.105 124.401 227.531 125.302 228.147 125.919Z" fill="white"/>
<path d="M227.045 126.275C228.751 127.555 229.852 128.563 230.35 129.298C230.681 129.844 230.894 130.804 230.989 132.18C231.487 130.52 231.262 129.085 230.314 127.875L228.147 125.919C227.531 125.302 227.104 124.401 226.868 123.215C226.536 123.808 226.429 124.449 226.548 125.136C226.643 125.705 226.808 126.085 227.045 126.275Z" fill="#DBDCDC"/>
<path d="M227.152 134.385C227.152 132.772 226.548 131.314 225.34 130.009C224.108 128.705 222.71 128.029 221.147 127.982C222.924 130.306 223.634 132.262 223.279 133.851C223.042 134.919 222.083 135.82 220.401 136.555C219.003 137.172 217.629 137.504 216.279 137.551L217.843 139.33C218.459 139.851 219.181 140.112 220.01 140.112C221.739 140.112 223.338 139.567 224.807 138.476C226.37 137.29 227.152 135.927 227.152 134.385Z" fill="#D18200"/>
<path d="M221.929 129.084C220.792 127.282 220.129 126.476 219.939 126.665L221.396 129.191C222.367 131.065 222.734 132.559 222.497 133.673C222.284 134.527 221.431 135.322 219.939 136.057C218.542 136.745 217.251 137.088 216.066 137.088C215.237 137.088 214.349 136.887 213.401 136.484L212.229 135.95C213.295 137.017 214.598 137.551 216.137 137.551C217.464 137.551 218.861 137.231 220.33 136.59C222.059 135.855 223.042 134.942 223.279 133.851C223.563 132.594 223.113 131.005 221.929 129.084Z" fill="#0D131A"/>
<path d="M182.347 166.437L180.393 165.512L157.368 218.232L160.246 218.587C161.976 218.801 163.456 219.097 164.688 219.477C165.233 219.666 166.251 220.319 167.743 221.433L170.053 222.963C169.342 223.959 168.786 225.358 168.383 227.16C168.004 228.844 167.909 229.995 168.099 230.611C168.336 231.441 168.774 232.164 169.413 232.781C170.006 233.35 170.657 233.742 171.368 233.955C174.044 234.524 176.176 235.141 177.763 235.805C178.782 236.208 180.31 237.085 182.347 238.437L185.296 240.536L186.468 241.674C187.061 242.078 187.783 242.35 188.636 242.493C189.347 242.611 190.531 242.41 192.189 241.888L194.818 242.493L197.625 243.204C198.881 243.631 199.97 244.058 200.894 244.485L202.28 245.161C202.991 245.493 203.512 245.623 203.843 245.552C204.341 245.433 204.53 244.923 204.412 244.022C204.293 243.168 203.974 242.161 203.452 240.999L202.706 239.504L209.173 239.825C209.978 239.967 210.748 240.18 211.483 240.465L213.046 241.141L214.361 241.248C214.597 241.105 214.68 240.856 214.609 240.501C214.515 239.742 214.278 238.923 213.899 238.046C213.164 236.267 212.004 234.643 210.417 233.172L213.188 233.101C214.515 233.125 215.58 233.315 216.386 233.67C217.594 234.24 217.949 233.718 217.452 232.105C217.049 230.801 215.829 229.354 213.792 227.765C212.655 226.911 211.423 226.164 210.097 225.524C208.984 224.979 208.048 224.623 207.29 224.457L206.935 224.386L206.117 224.315L201.711 221.54C200.48 220.686 199.283 219.655 198.123 218.445L196.488 216.453L196.133 214.817L198.229 213.251C199.343 212.374 200.219 211.508 200.859 210.654C203.322 207.334 204.743 204.417 205.122 201.903C205.809 197.184 204.21 191.504 200.326 184.864C197.72 180.382 193.61 175.781 187.996 171.061C183.496 167.646 181.613 166.105 182.347 166.437Z" fill="#0D131A"/>
<path d="M187.25 172.235C185.853 171.073 184.479 170.089 183.129 169.283L181.494 168.393L160.531 216.453C162.355 216.666 163.954 216.986 165.328 217.413C166.062 217.65 166.997 218.255 168.134 219.228C169.414 220.318 170.397 221.03 171.084 221.362C171.486 221.575 172.114 221.967 172.967 222.536L174.104 223.318L173.109 223.461C172.422 223.556 171.96 223.674 171.723 223.816C171.439 224.006 171.143 224.623 170.835 225.666L170.195 228.619C170.669 229.378 171.735 230.101 173.393 230.789C174.577 231.263 175.833 231.654 177.159 231.963C178.391 232.247 179.718 232.662 181.139 233.208C182.821 233.824 184.112 234.441 185.012 235.058L187.677 236.73C188.529 237.204 189.287 237.477 189.951 237.548L191.727 240.216C193.812 239.528 196.192 238.496 198.869 237.121C201.735 235.627 203.926 234.239 205.442 232.959C207.172 231.512 208.166 230.149 208.427 228.868L208.285 227.374L200.255 222.358C198.857 221.386 197.578 220.247 196.417 218.943C195.517 217.923 194.949 217.129 194.712 216.56L194.57 215.563L193.184 215.99L189.418 216.275L191.372 215.848L192.9 215.279C193.279 215.16 193.764 214.923 194.357 214.567L195.174 214.034C195.979 213.512 197.14 212.231 198.656 210.192C200.551 207.702 201.7 204.915 202.102 201.832C202.789 196.923 201.569 191.611 198.443 185.895C195.434 180.417 191.704 175.864 187.25 172.235Z" fill="#F29600"/>
<path d="M173.393 230.789C171.735 230.101 170.669 229.378 170.195 228.619C170.077 229.615 170.053 230.22 170.124 230.433C170.408 231.168 170.953 231.761 171.758 232.212L173.748 232.959L178.012 234.275C178.509 234.37 179.753 235.022 181.743 236.232L185.402 238.508L186.859 239.753C187.475 240.275 188.209 240.607 189.062 240.75C189.536 240.821 190.424 240.643 191.727 240.216L189.95 237.548C189.287 237.477 188.529 237.204 187.676 236.73L185.012 235.058C184.112 234.441 182.821 233.825 181.139 233.208C179.717 232.663 178.391 232.248 177.159 231.963C175.833 231.655 174.577 231.263 173.393 230.789Z" fill="#D18200"/>
<path d="M192.544 217.378C193.018 217.069 193.219 216.868 193.148 216.773L192.438 216.986L190.945 217.484L188.991 217.662L187.89 217.805L188.956 218.089L190.91 218.018C191.455 217.923 191.999 217.71 192.544 217.378Z" fill="#0D131A"/>
<path d="M181.601 213.003C184.325 208.995 185.687 204.524 185.687 199.592C185.687 195.726 184.822 192.097 183.093 188.706C181.411 185.433 179.113 182.73 176.2 180.595L160.531 216.453C162.355 216.667 163.953 216.987 165.327 217.414C166.062 217.651 166.997 218.256 168.134 219.228C169.413 220.319 170.396 221.03 171.083 221.362L171.119 221.398C175.43 219.738 178.924 216.939 181.601 213.003Z" fill="#D18200"/>
<path d="M206.26 225.774C205.928 225.679 205.644 225.821 205.407 226.2C205.146 226.604 204.969 227.208 204.874 228.015C204.755 229.177 204.874 230.552 205.229 232.141H212.868C213.674 232.189 214.633 232.402 215.746 232.782L217.168 233.351C217.262 233.066 217.18 232.651 216.919 232.106C216.422 231.038 215.332 229.876 213.65 228.619C212.513 227.766 211.021 227.066 209.173 226.521L206.26 225.774Z" fill="white"/>
<path d="M209.67 230.646C207.041 230.456 205.62 230.089 205.407 229.543H205.371L205.62 231.642L212.904 231.678C213.662 231.702 214.514 231.868 215.462 232.176C213.97 231.346 212.039 230.836 209.67 230.646Z" fill="#DBDCDC"/>
<path d="M206.828 225.418L206.401 225.311L205.442 225.453C204.874 225.833 204.518 226.674 204.376 227.979V229.58L205.371 229.544V228.086C205.466 227.137 205.667 226.532 205.975 226.271C206.401 225.987 207.456 226.165 209.137 226.805C210.796 227.421 212.205 228.157 213.366 229.01C215.142 230.339 216.22 231.524 216.599 232.568L215.462 232.176L214.751 232.995L216.99 233.813H217.381C217.546 233.742 217.641 233.635 217.665 233.493C217.736 233.018 217.641 232.508 217.381 231.963C216.86 230.801 215.711 229.556 213.934 228.228C212.371 227.066 210.002 226.129 206.828 225.418Z" fill="#0D131A"/>
<path d="M212.868 232.638L214.751 232.994L215.462 232.176C214.514 231.868 213.662 231.702 212.904 231.678L205.62 231.642L205.371 229.543L204.376 229.579L204.731 232.247C204.803 232.508 204.968 232.638 205.229 232.638H212.868Z" fill="#0D131A"/>
<path d="M206.65 236.836C209.303 237.547 211.4 238.543 212.939 239.824L212.335 240.038L213.97 240.749C214.017 240.275 213.899 239.67 213.615 238.935C213.093 237.441 212.063 236.006 210.523 234.63C209.457 233.706 207.953 232.638 206.011 231.429L202.955 229.65C202.6 229.437 201.996 229.733 201.143 230.539C200.196 231.393 199.568 232.354 199.26 233.421L199.082 234.097L200.539 235.271C201.179 235.65 201.759 235.887 202.28 235.982L206.65 236.836Z" fill="white"/>
<path d="M208.818 238.864C209.505 238.983 210.677 239.374 212.335 240.038L212.939 239.825C211.4 238.544 209.303 237.548 206.65 236.836L202.28 235.983C201.759 235.888 201.178 235.651 200.539 235.271L199.082 234.097C198.774 235.497 198.715 236.825 198.904 238.082L208.818 238.864Z" fill="#DBDCDC"/>
<path d="M213.33 239.789L212.939 239.753C210.997 238.947 209.647 238.484 208.889 238.366L199.366 237.619C199.224 236.148 199.343 234.797 199.722 233.563C199.982 232.662 200.503 231.82 201.285 231.038C201.948 230.397 202.434 230.077 202.742 230.077L202.92 230.184C206.331 232.105 208.759 233.706 210.203 234.986C211.791 236.386 212.809 237.856 213.259 239.397L213.33 239.789ZM211.802 240.358C213.034 240.856 213.686 241.14 213.757 241.212L214.219 241.176L214.467 240.785C214.491 240.239 214.361 239.563 214.076 238.757C213.532 237.192 212.454 235.698 210.843 234.275C209.327 232.899 206.852 231.251 203.417 229.33L203.204 229.223C202.967 229.081 202.623 229.081 202.173 229.223C201.605 229.461 200.977 229.97 200.29 230.753C199.509 231.607 198.952 232.508 198.62 233.457C198.17 234.737 197.993 235.887 198.087 236.907L198.407 238.152C198.454 238.389 198.608 238.532 198.869 238.579L208.711 239.326C209.374 239.421 210.405 239.765 211.802 240.358Z" fill="#0D131A"/>
<path d="M196.026 234.346C195.742 234.109 194.972 234.299 193.717 234.915C192.39 235.555 191.466 236.255 190.945 237.014L190.803 237.263L191.407 236.943C191.407 237.797 191.834 238.425 192.686 238.828L196.915 240.607C199.496 241.769 201.238 242.789 202.138 243.666L201.818 243.951L203.097 244.52C203.286 244.212 203.346 243.773 203.275 243.204C203.18 242.065 202.54 240.892 201.356 239.682C198.585 236.765 196.808 234.986 196.026 234.346Z" fill="white"/>
<path d="M190.093 239.931L197.057 242.172C198.218 242.552 199.805 243.145 201.818 243.951L202.138 243.666C201.238 242.789 199.497 241.769 196.915 240.607L192.687 238.828C191.834 238.425 191.407 237.797 191.407 236.943L190.803 237.263C190.188 238.283 189.951 239.172 190.093 239.931Z" fill="#DBDCDC"/>
<path d="M191.372 237.299C191.798 236.659 192.58 236.042 193.717 235.449C194.712 234.928 195.399 234.69 195.778 234.738L201.037 240.038C202.126 241.153 202.718 242.22 202.813 243.24C202.861 243.643 202.659 243.762 202.209 243.596L197.235 241.71L193.184 240.465L190.732 239.54C190.496 238.971 190.709 238.224 191.372 237.299ZM196.346 233.955C196.157 233.813 195.849 233.754 195.423 233.777C194.712 233.872 193.859 234.204 192.864 234.773C191.798 235.39 191.029 236.042 190.555 236.73C189.915 237.679 189.56 238.556 189.489 239.362C189.418 239.908 189.489 240.311 189.702 240.572C189.773 240.691 190.034 240.785 190.484 240.857L192.9 241.426L196.915 242.635C198.265 243.086 199.663 243.608 201.108 244.2L202.884 244.947C203.145 245.066 203.358 245.007 203.524 244.77C203.737 244.366 203.82 243.845 203.772 243.204C203.701 241.947 203.014 240.655 201.712 239.327C198.727 236.244 196.939 234.453 196.346 233.955Z" fill="#0D131A"/>
<path d="M142.019 70.531C141.521 70.6496 141.119 70.9104 140.811 71.3136C140.503 71.7168 140.361 72.1792 140.384 72.701L140.811 84.1911C141.024 92.2782 141 97.5667 140.74 100.057C140.408 103.045 139.461 106.982 137.897 111.867C136.215 117.085 134.403 121.448 132.461 124.958C131.466 126.737 129.322 130.176 126.03 135.274L117.538 148.792C114.411 154.034 112.232 158.207 111 161.314C108.039 168.832 105.943 175.022 104.711 179.883C102.461 188.658 101.786 196.401 102.686 203.113C103.681 210.417 106.713 216.133 111.782 220.259C116.756 224.338 123.353 226.568 131.573 226.947C141.427 227.398 150.381 225.915 158.434 222.5C169.023 218.042 177.432 210.477 183.662 199.805C189.394 189.963 190.946 178.911 188.316 166.65C186.398 157.709 182.181 148.01 175.667 137.551C169.887 128.231 166.382 115.401 165.15 99.0608C164.771 93.7011 165.375 86.788 166.962 78.3215L169.485 67.0804C169.532 66.7721 169.342 66.4519 168.916 66.1199L167.815 65.3373C167.246 64.7918 166.571 64.6139 165.789 64.8037L142.019 70.531Z" fill="#0D131A"/>
<path d="M179.398 202.543C171.06 209.516 162.212 213.891 152.856 215.67C143.476 217.448 135.339 216.251 128.446 212.077C127.072 216.014 125.366 218.836 123.329 220.543C122.382 221.373 121.15 222.132 119.634 222.82C123.116 224.267 127.096 225.097 131.573 225.31C140.313 225.69 148.284 224.528 155.485 221.824C165.292 218.124 173.263 211.697 179.398 202.543Z" fill="#DDD583"/>
<path d="M185.047 162.381C182.916 156.31 180.203 151.46 176.911 147.832C172.339 142.804 166.962 140.516 160.779 140.966C153.365 141.535 146.78 147.251 141.024 158.113C135.884 167.812 132.982 178.046 132.319 188.812C131.703 198.773 130.412 206.528 128.446 212.077C135.339 216.251 143.476 217.449 152.856 215.67C162.213 213.892 171.06 209.516 179.398 202.544L181.388 199.378C187.665 188.635 188.885 176.302 185.047 162.381Z" fill="#FFF697"/>
<path d="M130.684 143.67C130.684 140.895 129.82 138.358 128.091 136.057C121.79 145.828 117.502 152.931 115.228 157.366H115.37C119.61 157.366 123.223 156.026 126.207 153.346C129.192 150.69 130.684 147.464 130.684 143.67Z" fill="#D18200"/>
<path d="M142.552 72.6651L142.587 74.337L142.729 88.0683C142.729 92.7877 142.646 96.3806 142.48 98.847L142.374 100.057C142.019 103.472 141.107 107.657 139.638 112.614C138.027 118.069 136.262 122.527 134.344 125.99L123.684 142.958C118.189 151.638 114.636 158.017 113.025 162.096C110.04 169.685 107.92 175.958 106.665 180.915C104.58 189.192 103.965 196.496 104.817 202.828C105.433 207.405 106.902 211.342 109.223 214.638C111.426 217.793 114.352 220.271 117.999 222.073C119.871 221.362 121.375 220.52 122.512 219.547C124.786 217.603 126.539 214.247 127.771 209.48C128.908 204.951 129.737 198.464 130.258 190.022C130.566 184.852 131.442 179.373 132.887 173.587C134.427 167.421 136.334 162.12 138.608 157.685C141.095 152.824 143.985 148.768 147.277 145.519C151.494 141.369 155.876 139.128 160.424 138.796C168.359 138.203 175.252 142.424 181.103 151.46C179.232 147.262 176.981 143.041 174.352 138.796C168.335 129.167 164.723 116.254 163.515 100.057C163.302 96.8787 163.515 92.5743 164.155 87.1434C164.842 81.428 165.753 76.7323 166.89 73.0564L166.286 67.08V66.9377L142.552 72.6651Z" fill="#F29600"/>
<path d="M142.552 72.6651L142.587 74.337L142.729 88.0683C142.729 92.7877 142.646 96.3806 142.481 98.847L142.374 100.057L141.663 104.61C145.975 105.772 150.179 104.918 154.277 102.049C157.688 99.6534 160.85 95.9775 163.764 91.0209C164.356 83.8825 165.398 77.8943 166.891 73.0564L166.287 67.08V66.9377L142.552 72.6651Z" fill="#D18200"/>
<path d="M103.183 172.555C99.5116 176.753 96.4678 181.282 94.0517 186.144C90.8302 192.571 89.2194 199.389 89.2194 206.599C89.2194 210.322 90.084 214.342 91.8132 218.658C92.6659 220.84 93.5305 222.678 94.407 224.172C94.5965 225.31 94.6912 226.46 94.6912 227.622C91.5408 230.041 89.4681 231.891 88.4732 233.172L86.8388 235.164L85.6307 236.587C84.5411 237.227 83.8305 237.915 83.4989 238.65C83.1909 239.385 83.0606 240.263 83.108 241.283L80.8695 245.374C80.0405 247.223 79.7089 248.99 79.8747 250.674C79.9694 251.575 80.1826 252.31 80.5142 252.88C80.9406 253.828 81.3907 254.326 81.8644 254.374L82.6461 253.804L83.108 253.2C84.2924 251.967 85.1215 251.231 85.5952 250.994L87.8692 250.14L90.6051 249.18L93.2344 249.322V250.959C93.2818 252.239 93.4595 253.306 93.7674 254.16C94.1227 255.18 94.5728 256.057 95.1176 256.793C95.6624 257.552 96.1006 257.884 96.4323 257.789C96.5981 257.765 96.9652 257.303 97.5337 256.401C97.9838 255.69 98.4812 255.073 99.0261 254.552L101.94 252.631L104.818 251.03L106.346 250.496L108.548 250.532C108.927 252.05 109.697 253.804 110.858 255.797C111.474 256.982 111.924 257.563 112.208 257.54C112.374 257.516 112.67 257.219 113.096 256.65L113.665 255.832C114.447 254.551 115.074 253.662 115.548 253.164L117.68 251.279L120.167 249.109L121.802 248.54L122.939 247.686C123.341 247.33 123.626 246.903 123.791 246.405C123.91 246.049 123.993 245.551 124.04 244.911C124.23 240.879 122.832 236.421 119.847 231.536L120.061 228.761C123.377 227.124 126.527 224.468 129.512 220.792C132.023 217.709 133.61 213.749 134.273 208.911L134.557 202.543C134.415 198.678 133.018 194.836 130.365 191.017C128.801 188.741 127.048 186.784 125.106 185.148L110.076 166.543L110.645 163.021L108.939 166.472L103.183 172.555Z" fill="#0D131A"/>
<path d="M98.7415 110.657L98.5994 109.875C98.4336 108.309 97.8177 107.064 96.7518 106.139L96.5386 105.962C95.8753 105.298 95.0226 104.799 93.9803 104.467C92.5354 103.993 91.2563 104.088 90.143 104.752C88.7454 105.558 87.6439 106.922 86.8385 108.843C85.9621 110.954 85.9621 112.673 86.8385 114.001L87.8334 115.887C88.2361 116.717 88.4611 117.274 88.5085 117.558C88.4375 117.843 88.1295 118.329 87.5847 119.017L86.3056 120.511L83.0722 119.906C81.7457 119.811 80.7864 120.215 80.1942 121.116C79.8862 121.59 79.6257 123.096 79.4125 125.634C79.1993 128.195 79.2348 129.76 79.5191 130.329C79.7086 130.709 80.0284 131.064 80.4784 131.397L82.1484 132.499L83.6052 133.068C84.2448 133.282 84.6238 133.472 84.7422 133.638C85.5239 134.491 86.6727 136.187 88.1887 138.725C88.5677 139.365 89.231 139.863 90.1785 140.219L92.3814 140.717C94.1817 147.974 95.7924 153.144 97.2137 156.227C98.327 158.669 99.6298 160.377 101.122 161.349C102.449 162.203 104.083 162.654 106.025 162.701C107.755 162.748 109.117 162.499 110.112 161.954C110.419 161.788 111.853 160.353 114.411 157.65L118.923 152.99L121.375 151.211L123.933 149.539C124.904 148.875 126.065 148.235 127.415 147.618L129.156 146.906L130.507 146.8L132.034 147.084L132.852 147.333L131.288 146.231C132.709 146.041 133.432 145.827 133.456 145.59C133.479 145.448 133.302 145.353 132.923 145.306H132.319L142.907 128.942C143.712 129.321 144.174 129.321 144.293 128.942C144.364 128.705 144.352 128.503 144.257 128.337L143.795 127.839C143.535 127.626 142.481 127.009 140.633 125.989C138.951 125.088 137.021 124.412 134.841 123.962C132.473 123.487 130.661 123.476 129.405 123.926C127.131 124.756 125.532 125.93 124.608 127.448C123.732 128.942 123.282 131.171 123.258 134.136L121.446 135.132C120.664 135.582 120.06 136.033 119.634 136.483L119.03 137.159L115.939 140.646C114.47 142.282 113.369 143.361 112.634 143.883C111.639 144.594 110.455 144.974 109.081 145.021L106.31 144.808L105.706 140.788C105.492 138.582 105.469 137.1 105.635 136.341L107.695 134.598C108.761 134.219 109.472 133.875 109.827 133.566C110.538 132.855 110.858 131.705 110.787 130.116L110.751 128.408L111.355 127.875C113.013 126.499 114.127 125.385 114.695 124.531C115.572 123.25 115.82 121.768 115.441 120.084C115.086 118.543 114.47 117.582 113.594 117.203C112.907 116.918 112.575 116.8 112.599 116.847L109.117 115.104C108.524 114.89 107.956 114.938 107.411 115.246L106.31 116.242C105.646 116.906 105.256 117.25 105.137 117.274L102.686 117.594L100.447 113.966C99.4522 112.234 98.8837 111.132 98.7415 110.657Z" fill="#0D131A"/>
<path d="M96.7872 111.049L96.503 109.057C96.3609 108.251 96.1358 107.717 95.8279 107.456L93.9803 106.069C92.867 105.642 91.5523 105.844 90.0363 106.674L88.7572 109.057C88.0229 110.812 87.9281 112.105 88.4729 112.935C88.8282 113.456 89.2072 114.322 89.6099 115.531C90.0363 116.765 90.2139 117.571 90.1429 117.95C90.0008 118.828 89.373 119.777 88.2597 120.796L86.6253 122.041L84.6711 121.472C83.2735 121.235 82.326 121.484 81.8286 122.219C81.3074 122.978 81.0232 124.318 80.9758 126.239C80.9284 127.923 81.0232 128.99 81.2601 129.441L83.2853 130.899C84.6355 131.705 85.5001 132.31 85.8791 132.713L88.1531 135.417C89.148 136.65 89.7284 137.433 89.8942 137.765C90.2732 138.405 91.0785 138.891 92.3103 139.223L94.0513 139.508L94.5843 142.852C95.1291 145.626 95.899 148.306 96.8938 150.891C98.0545 153.88 98.9783 155.895 99.6653 156.939C100.257 157.816 101.134 158.634 102.295 159.393C103.313 160.057 104.592 160.449 106.132 160.567C107.553 160.686 108.595 160.555 109.259 160.176C109.638 159.986 110.479 159.097 111.781 157.508C113.155 155.824 114.209 154.71 114.944 154.164L118.568 151.212C120.297 149.765 121.707 148.674 122.796 147.939C124.241 146.943 126.941 146.125 130.897 145.484L132.567 145.271H133.207L143.262 129.156L138.323 126.95C134.723 125.599 132.176 125.184 130.684 125.705C128.931 126.346 127.652 127.045 126.847 127.804C126.112 128.468 125.568 129.381 125.212 130.543C124.786 131.99 124.644 133.555 124.786 135.239L123.294 136.093C122.18 136.781 121.328 137.445 120.735 138.085L117.609 141.464C116.045 143.053 114.79 144.192 113.842 144.879C111.781 146.35 109.448 146.978 106.843 146.765C107.032 147.429 107.541 148.022 108.37 148.544L110.147 149.789L111.604 150.642C111.983 150.951 112.184 151.389 112.208 151.959C112.232 152.599 111.971 153.583 111.426 154.911C110.881 156.215 110.514 156.832 110.325 156.761L110.716 155.516C111.142 154.425 111.32 153.31 111.248 152.172C111.248 151.935 111.095 151.698 110.787 151.461C110.597 151.342 110.135 151.069 109.401 150.642L107.837 149.753C106.961 149.184 106.168 148.33 105.457 147.192L105.173 146.551L104.675 144.702L103.787 140.611C103.574 139.33 103.538 138.097 103.68 136.911L104 135.524C105.54 134.03 106.558 133.176 107.056 132.962L108.228 132.358C108.631 131.931 108.832 131.184 108.832 130.117L108.797 128.267L108.939 127.484L110.929 125.99C112.279 125.065 113.167 124.306 113.594 123.713C114.636 122.267 114.861 120.962 114.269 119.8L113.096 118.484L108.477 116.954L107.482 117.844C106.819 118.555 106.25 118.994 105.777 119.16L103.396 119.551L101.619 119.373C101.312 119.207 100.459 117.927 99.0612 115.531C97.64 113.136 96.882 111.642 96.7872 111.049Z" fill="#F29600"/>
<path d="M104.036 123.393C104.131 124.341 104.64 124.958 105.564 125.243C106.416 125.503 107.103 125.409 107.624 124.958C108.619 124.104 109.484 123.523 110.218 123.215L111.355 123.037L112.208 122.93C113.037 122.788 113.617 122.112 113.949 120.903C114.162 120.073 114.186 119.243 114.02 118.413C113.783 117.416 113.286 116.575 112.528 115.887C111.628 115.08 110.538 114.737 109.259 114.855C108.098 114.974 107.317 115.318 106.914 115.887L106.701 116.1C105.208 117.594 104.367 118.922 104.178 120.084C103.965 121.413 103.917 122.515 104.036 123.393Z" fill="#0D131A"/>
<path d="M104.32 122.362L104.498 120.156C104.687 119.113 105.492 117.844 106.914 116.35L107.162 116.101C107.541 115.626 108.252 115.33 109.294 115.211C110.431 115.069 111.438 115.377 112.314 116.136C113.309 117.037 113.807 118.164 113.807 119.516L113.629 120.796C113.321 121.887 112.836 122.492 112.172 122.611L111.32 122.717L110.076 122.895C109.342 123.227 108.56 123.749 107.731 124.46C107.233 124.84 106.594 124.97 105.812 124.852C104.959 124.709 104.486 124.271 104.391 123.536L104.32 122.362ZM103.858 120.049C103.621 121.472 103.704 122.765 104.107 123.927C104.557 125.113 104.983 125.812 105.386 126.026C105.789 126.239 106.333 126.038 107.02 125.421C107.707 124.804 108.821 124.164 110.36 123.5L112.279 123.251C113.226 123.109 113.89 122.35 114.269 120.974C114.506 120.097 114.529 119.219 114.34 118.342C114.103 117.298 113.57 116.409 112.741 115.674C111.793 114.796 110.621 114.417 109.223 114.535L107.66 114.962L106.665 115.674L106.452 115.887C104.936 117.405 104.071 118.792 103.858 120.049Z" fill="#0D131A"/>
<path d="M109.223 115.78C108.465 115.898 107.968 116.1 107.731 116.384L106.523 117.736C105.812 118.614 105.398 119.385 105.279 120.049C105.019 121.661 105.031 122.966 105.315 123.962L105.848 124.993L106.097 124.744C106.476 123.677 107.447 122.574 109.01 121.436L110.005 121.187C110.597 121.092 111.095 120.914 111.497 120.653L113.025 119.052C112.93 118.009 112.516 117.179 111.782 116.562C111.071 115.922 110.218 115.661 109.223 115.78Z" fill="white"/>
<path d="M111.959 121.721C112.243 121.674 112.504 121.389 112.741 120.867C112.978 120.298 113.072 119.694 113.025 119.053L111.497 120.654C111.094 120.915 110.597 121.093 110.005 121.188L109.01 121.437C107.447 122.575 106.475 123.678 106.096 124.745C107.494 123.417 108.738 122.516 109.827 122.041L110.858 121.828L111.959 121.721Z" fill="#DBDCDC"/>
<path d="M91.1376 104.788C89.9296 105.334 89.1479 106.258 88.7925 107.563C88.5557 108.393 88.5201 109.294 88.686 110.266C88.8044 111.12 89.0057 111.725 89.29 112.081C92.5352 115.211 94.6671 116.895 95.6856 117.132C96.1594 117.203 96.5029 117.108 96.716 116.847C97.2372 116.207 97.6043 114.855 97.8175 112.792C98.0544 110.61 97.9241 109.009 97.4267 107.99C95.9817 104.646 93.8854 103.579 91.1376 104.788Z" fill="#0D131A"/>
<path d="M91.3868 105.321C92.7844 104.705 93.9688 104.764 94.94 105.499C95.6506 106.021 96.302 106.934 96.8942 108.238C97.3442 109.211 97.4982 110.764 97.3561 112.899C97.2376 114.938 96.9771 116.207 96.5744 116.705L96.0414 116.776C95.4966 116.658 94.3478 115.851 92.5949 114.357L89.7524 111.725L89.3615 110.729L89.1839 109.092L89.3615 107.705C89.6458 106.59 90.3209 105.796 91.3868 105.321ZM97.7469 107.74C97.1547 105.986 96.2428 104.8 95.011 104.183C93.8029 103.567 92.4409 103.59 90.9249 104.254C89.4563 104.895 88.5443 106.116 88.189 107.918C87.8574 109.626 88.1535 111.061 89.0773 112.223C89.9774 113.503 91.2684 114.784 92.9502 116.065C94.7268 117.44 95.9467 117.997 96.6099 117.737C97.3442 117.452 97.8654 116.195 98.1733 113.966C98.5049 111.618 98.3628 109.543 97.7469 107.74Z" fill="#0D131A"/>
<path d="M96.5388 108.061C95.9703 106.804 95.3426 105.938 94.6556 105.464L91.5644 105.357C90.9012 105.618 90.3801 106.092 90.0011 106.78C90.0958 108.132 90.4511 109.294 91.067 110.266C92.6304 112.614 94.3596 114.725 96.2546 116.598C96.6336 116.646 96.8941 115.496 97.0363 113.148C97.1784 110.753 97.0126 109.057 96.5388 108.061Z" fill="white"/>
<path d="M92.9147 114.001C94.6439 115.614 95.7454 116.48 96.2191 116.598H96.2546C94.3596 114.725 92.6305 112.614 91.0671 110.266C90.4512 109.294 90.0959 108.132 90.0011 106.78C89.6221 107.515 89.4918 108.416 89.6103 109.483C89.705 110.29 89.859 110.859 90.0722 111.191L92.9147 114.001Z" fill="#DBDCDC"/>
<path d="M90.3207 125.954L88.6152 122.717C87.9756 121.982 87.1702 121.602 86.199 121.578C85.2278 121.578 84.3514 121.982 83.5697 122.788C82.717 123.642 82.3972 124.745 82.6104 126.096C82.8235 127.164 83.5579 128.005 84.8133 128.622L87.5492 129.582C89.1837 130.081 90.297 130.294 90.8892 130.223L91.6353 130.152C91.8248 129.606 91.3866 128.207 90.3207 125.954Z" fill="#0D131A"/>
<path d="M90.2497 126.63C91.1735 128.67 91.5999 129.785 91.5288 129.974L90.4273 129.903L87.9401 129.476C87.1111 129.263 86.1044 128.86 84.92 128.267C83.7593 127.674 83.096 126.927 82.9302 126.026L82.8947 125.314C82.8947 124.389 83.1908 123.63 83.783 123.038C84.541 122.255 85.3345 121.887 86.1636 121.935C87.0637 121.935 87.7862 122.255 88.331 122.895L90.2497 126.63ZM92.2039 130.615C92.4645 130.378 92.1802 129.204 91.3512 127.093C90.4984 124.911 89.6693 123.37 88.864 122.468C88.1296 121.686 87.2414 121.283 86.1991 121.259C85.1332 121.259 84.1738 121.698 83.3211 122.575C82.3736 123.524 82.0301 124.71 82.2907 126.132C82.4091 126.82 82.6933 127.461 83.1434 128.053L84.5291 129.227C85.145 129.559 86.4952 129.927 88.5797 130.33L92.2039 130.615Z" fill="#0D131A"/>
<path d="M83.3919 124.389C84.0315 125.361 84.9434 126.298 86.1278 127.199C87.5964 128.267 89.2901 129.12 91.2088 129.761C91.422 129.737 90.9601 128.646 89.8231 126.488C88.7334 124.425 88.0346 123.215 87.7267 122.859C87.324 122.433 86.8503 122.184 86.3055 122.112C85.5238 121.994 84.7895 122.29 84.1025 123.002C83.6998 123.405 83.463 123.867 83.3919 124.389Z" fill="white"/>
<path d="M84.7781 127.875L87.9048 128.978C89.6814 129.547 90.7829 129.808 91.2092 129.76C89.2905 129.12 87.5969 128.266 86.1282 127.199C84.9439 126.298 84.0319 125.361 83.3923 124.389C83.2976 125.1 83.4397 125.847 83.8187 126.63C84.1266 127.27 84.4464 127.685 84.7781 127.875Z" fill="#DBDCDC"/>
<path d="M96.6805 126.737C97.3437 127.282 97.9833 127.934 98.5992 128.693C99.8546 130.235 100.399 131.563 100.234 132.678C100.139 133.436 99.8783 134.183 99.4519 134.919C100.707 134.61 101.75 133.887 102.579 132.749C103.408 131.587 103.822 130.27 103.822 128.8C103.822 127.069 103.277 125.587 102.188 124.353C101.122 123.12 99.8191 122.504 98.2794 122.504C97.3319 122.504 96.4436 122.764 95.6145 123.286C94.8092 123.784 94.1459 124.46 93.6248 125.314C95.0697 125.788 96.0883 126.262 96.6805 126.737Z" fill="#D18200"/>
<path d="M96.6808 126.737C96.2781 126.429 95.5793 126.073 94.5844 125.67C93.6133 125.266 93.104 125.112 93.0566 125.207L94.3002 125.919L96.1834 126.986C96.8229 127.484 97.5217 128.326 98.2797 129.512C99.1561 130.934 99.5351 132.085 99.4167 132.962C99.2035 134.504 98.3152 135.962 96.7519 137.338L94.5489 139.01C94.6673 139.318 95.5438 138.808 97.1782 137.48C98.9548 136.033 99.9734 134.433 100.234 132.678C100.4 131.563 99.8549 130.235 98.5995 128.693C97.9836 127.934 97.344 127.282 96.6808 126.737Z" fill="#0D131A"/>
<path d="M112.457 163.519L111.853 164.978C111.355 166.092 110.846 166.994 110.325 167.681L105.741 172.306C102.78 175.65 100.021 179.895 97.4624 185.041C94.6199 190.733 92.8433 195.986 92.1327 200.8C91.6116 204.476 91.6945 208.211 92.3814 212.006C92.8315 214.614 93.5421 217.271 94.5133 219.974L95.9346 223.887C96.1004 224.717 96.1951 225.63 96.2188 226.626C96.2662 227.646 96.207 228.227 96.0412 228.37L93.6961 230.255C92.0143 231.678 90.8654 232.804 90.2495 233.634L86.8385 237.939L86.0213 238.366C85.4291 238.698 85.0857 238.994 84.9909 239.255C84.6593 240.061 84.7067 241.105 85.133 242.385C85.6542 243.88 86.5543 244.97 87.8334 245.658L90.7825 247.223C90.9246 245.8 91.1852 245.196 91.5642 245.409C92.8196 246.168 94.0277 246.334 95.1884 245.907V248.54L100.198 249.038L102.721 249.144C103.716 246.868 104.533 246.002 105.173 246.548C105.789 247.093 106.594 247.259 107.589 247.046C108.465 246.856 109.14 246.476 109.614 245.907L109.721 249.109C113.108 248.99 115.856 248.634 117.964 248.042L118.959 245.231C119.669 244.852 120.285 244.247 120.806 243.417C121.328 242.563 121.671 241.627 121.837 240.607C121.339 237.856 120.202 235.093 118.426 232.318C118.284 232.057 118.236 231.014 118.284 229.188L116.863 229.472L113.629 229.615L111.959 229.366L113.594 229.081L116.578 228.583L118.319 228.085V228.049C118.864 227.931 119.646 227.528 120.664 226.84C122.725 225.441 124.94 223.283 127.309 220.366C129.749 217.354 131.324 213.903 132.034 210.014C132.413 207.95 132.544 205.235 132.425 201.867C132.283 197.907 131.04 193.84 128.694 189.666L125.212 184.579L112.457 163.519Z" fill="#F29600"/>
<path d="M91.5645 245.409C91.1855 245.196 90.925 245.801 90.7828 247.224C91.9435 247.793 93.4122 248.231 95.1887 248.54V245.907C94.028 246.334 92.82 246.168 91.5645 245.409Z" fill="#D18200"/>
<path d="M105.173 246.548C104.533 246.003 103.716 246.868 102.721 249.145C105.137 249.216 107.471 249.204 109.721 249.109L109.614 245.908C109.141 246.477 108.466 246.856 107.589 247.046C106.594 247.259 105.789 247.093 105.173 246.548Z" fill="#D18200"/>
<path d="M121.837 240.607C121.671 241.627 121.328 242.563 120.806 243.417C120.285 244.247 119.669 244.852 118.959 245.231L117.964 248.042C120.688 247.33 122.086 246.275 122.157 244.876C122.228 243.524 122.121 242.101 121.837 240.607Z" fill="#D18200"/>
<path d="M90.7473 244.911L90.8894 244.982C90.3209 243.56 89.5984 242.457 88.722 241.674C87.7745 240.844 87.0875 240.322 86.6612 240.109C86.1874 239.848 85.8203 239.884 85.5597 240.216L83.9963 242.67L82.1842 246.014C81.4499 247.674 81.1538 249.228 81.2959 250.674C81.367 251.409 81.5091 251.967 81.7223 252.346C81.8644 251.35 82.5751 250.283 83.8542 249.145C84.8964 248.22 85.7729 247.627 86.4835 247.366C87.36 247.081 88.1772 246.761 88.9352 246.405C90.0722 245.836 90.6762 245.338 90.7473 244.911Z" fill="white"/>
<path d="M91.2446 247.117C91.5525 246.998 91.4341 246.287 90.8893 244.982L90.7471 244.911C90.6761 245.338 90.072 245.836 88.935 246.405C88.177 246.761 87.3598 247.081 86.4834 247.366C85.7727 247.626 84.8963 248.219 83.8541 249.144C82.5749 250.283 81.8643 251.35 81.7222 252.346C83.0961 250.923 84.1028 250.045 84.7423 249.713L88.1533 248.326L91.2446 247.117Z" fill="#DBDCDC"/>
<path d="M98.8483 240.963L96.5388 244.165C95.1649 246.299 94.478 247.995 94.478 249.252C94.478 251.505 94.7267 253.295 95.2241 254.623L95.9703 255.904L96.2901 255.441C96.219 254.042 96.9652 252.631 98.5285 251.208C99.6182 250.188 100.684 249.465 101.726 249.038C103.361 248.327 104.285 247.426 104.498 246.335C103.929 244.722 103.29 243.524 102.579 242.742C101.821 241.935 101.028 241.366 100.199 241.034L98.8483 240.963Z" fill="white"/>
<path d="M101.726 249.038C100.684 249.465 99.6181 250.188 98.5285 251.208C96.9651 252.631 96.2189 254.042 96.29 255.441L97.8178 253.627C98.2916 253.177 99.5352 252.335 101.549 251.101C103.467 249.916 104.592 249.275 104.924 249.18C105.066 249.157 105.09 248.86 104.995 248.291C104.924 247.722 104.758 247.07 104.498 246.335C104.285 247.426 103.361 248.327 101.726 249.038Z" fill="#DBDCDC"/>
<path d="M117.147 242.315C116.626 241.675 116.081 241.165 115.512 240.785C114.849 240.382 114.399 240.323 114.162 240.608L111.888 243.347C110.609 244.959 109.899 246.015 109.756 246.513C109.377 247.793 109.662 249.643 110.609 252.062C111.083 253.272 111.604 254.351 112.173 255.299L112.386 254.944V254.766C112.457 253.58 112.883 252.442 113.665 251.351L115.655 249.038L117.325 247.331L118.746 245.73C118.177 244.046 117.644 242.908 117.147 242.315Z" fill="white"/>
<path d="M115.655 249.038L113.665 251.35C112.883 252.441 112.457 253.579 112.386 254.765V254.943C113.286 253.591 113.937 252.702 114.34 252.275L119.03 247.722C119.22 247.579 119.125 246.915 118.746 245.73L117.325 247.33L115.655 249.038Z" fill="#DBDCDC"/>
<path d="M90.4628 244.521C90.984 245.635 91.209 246.418 91.1379 246.868L90.9958 247.082L90.1431 247.402L84.8134 249.536C84.2212 249.868 83.2618 250.71 81.9353 252.062C81.7221 251.73 81.58 251.173 81.5089 250.39C81.3668 249.038 81.6511 247.592 82.3617 246.05L84.0672 242.849L85.595 240.501C85.7135 240.335 85.8556 240.252 86.0214 240.252C86.4241 240.204 87.2887 240.75 88.6152 241.888C89.2785 242.481 89.8943 243.358 90.4628 244.521ZM90.605 248.647L91.4932 248.291C91.9907 248.125 92.2986 247.734 92.4171 247.117C92.5355 246.382 92.2749 245.339 91.6354 243.987C90.9958 242.635 90.2733 241.603 89.468 240.892L87.5493 239.398C86.9334 239.042 86.3767 238.888 85.8793 238.935C85.3582 239.007 84.9081 239.268 84.5291 239.718L82.9657 242.173L81.1892 245.517C80.3601 247.319 80.0403 249.038 80.2298 250.675C80.3246 251.505 80.5141 252.181 80.7983 252.702L81.2247 253.485L81.7221 253.805C81.9353 253.853 82.113 253.781 82.2551 253.592L82.8591 252.987C84.1856 251.659 85.0502 250.9 85.4529 250.71C86.0214 250.378 87.7388 249.691 90.605 248.647Z" fill="#0D131A"/>
<path d="M104.782 249.003L104.64 249.181C104.285 249.299 103.207 249.916 101.407 251.031C99.5116 252.169 98.3391 252.952 97.889 253.378L96.148 255.548C95.8874 255.335 95.6506 254.92 95.4374 254.303C94.9636 253.046 94.7267 251.351 94.7267 249.216C94.7267 247.461 96.0651 244.9 98.7418 241.533L98.8839 241.319L99.2392 241.177C99.5945 241.153 100.033 241.284 100.554 241.568C101.217 241.9 101.845 242.386 102.437 243.027C103.077 243.714 103.657 244.782 104.178 246.228C104.699 247.604 104.901 248.529 104.782 249.003ZM105.066 250.426C105.54 250.284 105.86 249.928 106.026 249.359C106.239 248.624 106.049 247.438 105.457 245.801C104.841 244.189 104.154 242.967 103.396 242.137C102.733 241.402 102.011 240.833 101.229 240.43C100.471 240.027 99.784 239.837 99.1682 239.861C98.5997 239.908 98.1496 240.133 97.818 240.536L97.7114 240.714C94.8452 244.319 93.4121 247.153 93.4121 249.216C93.4121 251.541 93.6845 253.414 94.2293 254.837C94.5372 255.643 94.8926 256.224 95.2952 256.58L95.8638 257.043L96.3967 257.22L96.8586 256.9L97.2495 256.26C97.7232 255.501 98.2325 254.861 98.7773 254.339C99.1563 253.983 100.234 253.26 102.011 252.169C103.74 251.102 104.758 250.521 105.066 250.426Z" fill="#0D131A"/>
<path d="M113.843 241.354L114.162 240.963C114.281 240.844 114.411 240.785 114.553 240.785C114.885 240.785 115.288 240.975 115.761 241.354C116.235 241.71 116.65 242.125 117.005 242.599C117.384 243.05 117.822 243.927 118.32 245.232C118.841 246.607 119.007 247.449 118.817 247.757L116.721 249.714L114.34 252.062C113.843 252.607 113.156 253.568 112.279 254.943C111.521 253.663 110.905 252.323 110.432 250.923C109.816 249.05 109.662 247.603 109.97 246.583C110.159 245.919 111.45 244.176 113.843 241.354ZM118.035 241.781C117.727 241.354 117.301 240.915 116.756 240.465C115.951 239.801 115.217 239.469 114.553 239.469C114.008 239.469 113.547 239.682 113.168 240.109L112.848 240.5C110.337 243.441 108.963 245.338 108.726 246.192C108.3 247.615 108.525 249.536 109.401 251.955C109.899 253.259 110.479 254.481 111.142 255.619L111.675 256.544L112.244 256.9L112.777 256.58L113.381 255.655L115.299 252.951L119.67 248.718C120.357 248.125 120.321 246.832 119.563 244.84C118.995 243.394 118.485 242.374 118.035 241.781Z" fill="#0D131A"/>
<path d="M114.126 231.181L116.116 230.754C116.803 230.517 117.123 230.339 117.075 230.22L116.187 230.327L114.375 230.576L111.462 230.505C110.182 230.434 109.543 230.434 109.543 230.505L111.355 230.932L114.126 231.181Z" fill="#0D131A"/>
<path d="M146.886 7.38831C145.181 7.26973 143.76 8.47923 142.623 11.0168C142.315 11.6808 141.948 13.1393 141.521 15.3923L140.633 20.3726C140.467 21.3449 139.65 24.9497 138.181 31.1869C137.66 33.4636 135.99 36.8312 133.171 41.2897L131.146 44.8471L130.542 46.8036C130.447 47.5625 130.838 49.3056 131.715 52.0329C131.265 53.527 131.099 55.6614 131.217 58.4361L128.908 65.0172L127.664 68.2188L126.207 71.1002C126.018 71.4085 125.674 71.5745 125.177 71.5982C124.75 71.6457 124.336 72.0488 123.933 72.8077C123.152 74.3018 123.945 77.0884 126.314 81.1675L130.08 86.8592C129.772 88.875 130.72 90.2031 132.923 90.8434L137.933 91.4482C138.477 91.5193 139.271 91.8395 140.313 92.4086C141.261 92.9067 142.35 93.1557 143.582 93.1557C145.051 93.1557 146.756 92.6102 148.699 91.5193C150.38 90.6181 151.411 89.8592 151.79 89.2426L154.028 86.4679L157.119 82.7327L161.277 78.1793L165.078 74.1951C165.576 73.6259 166.18 73.2346 166.891 73.0212L167.779 72.8789C169.39 71.4559 170.763 69.6061 171.9 67.3294C172.801 65.5033 173.251 64.2108 173.251 63.4519C173.251 62.9065 173.12 61.8037 172.86 60.1436C172.576 58.3649 172.279 56.9301 171.972 55.8392C171.261 53.3254 170.906 51.2384 170.906 49.5783C170.906 48.1317 171.533 45.6178 172.789 42.0368C173.334 40.4241 175.075 37.1988 178.012 32.3608L181.103 28.5545L184.727 24.3212C185.485 23.3963 185.829 22.2343 185.758 20.835C185.687 19.6255 185.402 18.8429 184.905 18.4872C184.408 18.1315 183.567 17.9417 182.382 17.918C181.269 17.918 180.392 18.0485 179.753 18.3093C179.208 18.5228 178.13 19.4121 176.52 20.9773L171.794 25.7086C167.885 29.6217 164.522 32.5505 161.703 34.4952C160.519 35.3253 158.849 35.5031 156.693 35.0288C154.964 34.6731 153.247 33.9972 151.541 33.0011C150.333 32.2897 149.563 30.9379 149.232 28.9458C149.089 28.0446 149.018 26.3371 149.018 23.8232L149.409 17.1354C149.646 13.9338 149.753 12.0603 149.729 11.5148C149.682 10.4713 149.468 9.60572 149.089 8.91797C148.616 7.96934 147.881 7.45946 146.886 7.38831Z" fill="#F29600"/>
<path d="M139.034 78.0364L137.364 78.6768L135.943 78.8546L134.699 78.819L134.024 78.6412L133.633 78.7123C133.562 78.902 133.752 79.0799 134.202 79.2459L135.907 79.5305C136.997 79.5305 138.11 79.2459 139.247 78.6768C139.531 78.5345 140.017 78.4277 140.704 78.3566L142.054 78.321C142.338 78.3684 143.132 79.0443 144.435 80.3487C144.909 80.823 145.264 80.8942 145.501 80.5621C145.667 80.3487 145.441 79.993 144.826 79.4949L143.333 78.3922C142.504 77.8467 141.794 77.574 141.201 77.574C140.586 77.574 139.863 77.7281 139.034 78.0364Z" fill="#0D131A"/>
<path d="M138.963 83.7287L140.526 83.3018L141.77 83.6575C142.291 83.7287 142.646 83.6338 142.836 83.3729C142.931 83.2306 142.753 82.9935 142.303 82.6615C141.853 82.3532 141.486 82.1871 141.201 82.1634C140.941 82.1397 140.491 82.282 139.851 82.5903L138.679 83.2662C138.513 83.4085 138.466 83.5389 138.537 83.6575L138.963 83.7287Z" fill="#0D131A"/>
<path d="M126.314 77.3251C126.195 77.4674 126.266 77.7046 126.527 78.0366L127.166 78.748L128.374 80.5979C128.564 80.9299 128.777 81.0722 129.014 81.0247C129.275 80.9536 129.334 80.7876 129.192 80.5267C129.026 80.1947 128.599 79.5544 127.912 78.6058C127.747 78.3212 127.451 78.0247 127.024 77.7164C126.598 77.3844 126.361 77.254 126.314 77.3251Z" fill="#0D131A"/>
<path d="M145.181 55.8038L145.288 55.4124C145.288 55.2464 145.228 55.1397 145.11 55.0923L144.506 55.3769L144.044 56.6575L143.582 57.2978L143.333 57.867L143.618 58.5429C143.831 58.7326 144.008 58.8038 144.151 58.7563C144.316 58.6852 144.399 58.2465 144.399 57.4401L144.719 56.6219L145.181 55.8038Z" fill="#0D131A"/>
<path d="M144.151 59.1476C143.937 59.2424 144.008 59.9776 144.364 61.3531L145.998 66.0132L146.922 67.2583C147.443 67.78 147.775 67.9935 147.917 67.8986C148.154 67.7326 148.023 67.2701 147.526 66.5112L147.064 65.9065L146.602 65.195L145.714 63.0606L144.861 60.8195C144.506 59.61 144.269 59.0527 144.151 59.1476Z" fill="#0D131A"/>
<path d="M135.872 55.6968L135.694 56.266L135.659 57.262L135.872 58.9695C135.872 60.1079 136.061 60.6415 136.44 60.5703C136.677 60.5229 136.796 60.345 136.796 60.0367L136.725 59.2541L136.334 57.6533C136.168 56.3727 136.014 55.7205 135.872 55.6968Z" fill="#0D131A"/>
<path d="M152.11 82.7327L152.003 84.6537C152.027 85.0569 151.849 85.3296 151.47 85.4719C151.091 85.6142 150.736 85.46 150.404 85.0094L149.978 85.6498C150.523 86.3375 151.115 86.6814 151.754 86.6814C152.181 86.6814 152.501 86.1715 152.714 85.1517C152.927 84.1557 152.998 82.9343 152.927 81.4877L152.11 82.7327Z" fill="#0D131A"/>
<path d="M151.612 85.6141C152.039 85.4244 152.204 84.4639 152.11 82.7327L150.404 85.0094L151.115 85.5785L151.612 85.6141Z" fill="white"/>
<path d="M131.75 54.0601L131.608 54.985C131.466 56.0996 131.454 57.2854 131.573 58.5423C131.596 59.0403 131.845 59.7162 132.319 60.57C132.911 61.6135 133.61 62.3249 134.415 62.7044C134.368 61.2814 134.131 59.9059 133.705 58.5779C133.207 57.0601 132.556 55.5541 131.75 54.0601Z" fill="white"/>
<path d="M76.7477 57.4396C76.5819 57.3684 76.3332 57.4751 76.0015 57.7597L75.362 58.4356C72.8274 61.8032 70.4113 67.3645 68.1136 75.1195C65.7211 83.1354 64.063 91.4951 63.1392 100.199C63.0444 100.958 63.0563 101.634 63.1747 102.226C63.2695 102.772 63.4235 103.056 63.6366 103.08C64.063 103.128 64.3591 102.203 64.5249 100.305C65.3066 92.4319 66.87 84.4872 69.2151 76.4713C71.3943 69.0009 73.7394 63.155 76.2503 58.9336C76.7951 58.0324 76.9609 57.5344 76.7477 57.4396Z" fill="#0D131A"/>
<path d="M66.5856 63.8429C66.4198 63.7718 66.0645 64.1038 65.5197 64.839L64.6314 66.1908C59.0885 81.511 57.004 96.1079 58.3779 109.982L58.52 111.76C58.6385 112.756 58.7806 113.254 58.9464 113.254C59.0885 113.254 59.2425 112.816 59.4083 111.938L59.6215 110.302C59.053 92.183 61.2086 77.5149 66.0882 66.2975C66.7515 64.8034 66.9173 63.9852 66.5856 63.8429Z" fill="#0D131A"/>
<path d="M215.249 66.4394L214.787 65.7279C214.574 65.4196 214.396 65.2892 214.254 65.3366C214.088 65.3841 214.005 65.6212 214.005 66.0481L214.147 66.973C215.521 70.7675 216.564 75.9612 217.274 82.5541C218.056 89.5977 218.21 96.1076 217.736 102.084V103.4C217.783 104.064 217.89 104.396 218.056 104.396C218.222 104.396 218.388 104.064 218.553 103.4L218.767 102.119C219.501 95.9534 219.477 89.0759 218.695 81.4869C217.937 73.9928 216.789 68.977 215.249 66.4394Z" fill="#0D131A"/>
<path d="M220.152 74.7282C219.939 74.0168 219.714 73.6966 219.477 73.7678C219.311 73.7915 219.205 73.9812 219.157 74.3369V75.1195C220.792 81.499 222.023 88.0327 222.853 94.7205C223.729 101.835 224.061 108.523 223.847 114.784C223.847 116.159 223.966 116.859 224.203 116.883C224.369 116.883 224.487 116.586 224.558 115.993L224.629 114.784C225.458 108.642 225.399 101.906 224.451 94.5782C223.646 88.175 222.213 81.5583 220.152 74.7282Z" fill="#0D131A"/>
<path d="M160.922 55.3405C160.614 55.1982 160.27 55.2457 159.891 55.4828L152.607 60.89L152.11 61.3169C151.684 61.5777 151.376 61.969 151.186 62.4908L150.689 63.5224L149.943 65.2655L150.085 65.7635L151.648 65.8347L156.089 64.9809L156.48 64.8742L160.247 63.8781C161.218 63.5224 161.763 63.1074 161.881 62.6331C161.999 62.0876 162.011 61.0797 161.917 59.6093L161.561 56.3366C161.467 55.8148 161.253 55.4828 160.922 55.3405Z" fill="white"/>
<path d="M160.922 55.3405C160.614 55.1982 160.27 55.2457 159.891 55.4828L152.607 60.89L152.11 61.3169C151.684 61.5777 151.376 61.969 151.186 62.4908L150.689 63.5224L149.943 65.2655L150.085 65.7635L151.648 65.8347L156.089 64.9809L156.48 64.8742L160.247 63.8781C161.218 63.5224 161.763 63.1074 161.881 62.6331C161.999 62.0876 162.011 61.0797 161.917 59.6093L161.561 56.3366C161.467 55.8148 161.253 55.4828 160.922 55.3405Z" fill="white"/>
<path d="M157.084 57.4756L157.013 57.5467L152.11 61.3175C151.683 61.5784 151.375 61.9697 151.186 62.4914L150.689 63.5231L149.942 65.2662L150.084 65.7642L151.648 65.8353L155.77 65.0527C156.788 63.4401 157.297 61.6258 157.297 59.61C157.297 58.8748 157.226 58.1633 157.084 57.4756Z" fill="#008086"/>
<path d="M133.918 62.8472L134.806 63.3097L134.77 62.6694C134.747 61.199 134.51 59.7998 134.06 58.4717L133.029 55.8037C132.698 56.6812 132.532 57.5942 132.532 58.5429C132.532 60.1792 132.994 61.614 133.918 62.8472Z" fill="#008086"/>
<path d="M133.989 61.4949C134.202 61.4949 134.415 61.3526 134.628 61.068L134.06 58.4712C133.799 57.6411 133.467 56.7874 133.065 55.9099C132.733 56.5739 132.567 57.3803 132.567 58.3289C132.567 59.2064 132.709 59.9534 132.994 60.57C133.254 61.1866 133.586 61.4949 133.989 61.4949Z" fill="#00666C"/>
<path d="M133.491 60.7134C133.657 61.3777 134 61.6623 134.522 61.5674C134.474 61.0693 134.285 60.322 133.953 59.3257C133.503 59.7052 133.349 60.1678 133.491 60.7134Z" fill="#0D131A"/>
<path d="M157.084 57.4756L157.013 57.5467L152.11 61.3175C151.683 61.5784 151.375 61.9697 151.186 62.4914L150.404 64.1278L153.602 64.3412C154.881 64.1041 155.947 63.5705 156.8 62.7404C157.132 61.7444 157.297 60.7009 157.297 59.61C157.297 58.8748 157.226 58.1633 157.084 57.4756Z" fill="#00666C"/>
<path d="M155.485 64.8034L156.338 64.7678C157.238 63.2263 157.688 61.5069 157.688 59.6097C157.688 58.9456 157.605 58.1512 157.439 57.2262L157.404 57.1907C157.38 57.5227 157.167 57.6887 156.764 57.6887L156.942 59.6097C156.942 61.4832 156.456 63.2144 155.485 64.8034Z" fill="#0D131A"/>
<path d="M153.496 64.1274C153.898 64.1274 154.23 63.9851 154.49 63.7006C154.727 63.416 154.846 63.0839 154.846 62.7045C154.846 62.325 154.727 61.993 154.49 61.7084C154.23 61.4476 153.934 61.3171 153.602 61.3171C153.294 61.3171 153.022 61.4594 152.785 61.744C152.548 62.0286 152.43 62.3606 152.43 62.7401L152.678 63.665L153.496 64.1274Z" fill="#0D131A"/>
<path d="M154.881 62.2433C155.236 62.2433 155.52 62.1128 155.734 61.8519C155.923 61.6146 156.018 61.3418 156.018 61.0334C156.018 60.6776 155.911 60.3811 155.698 60.1439C155.461 59.8829 155.189 59.7524 154.881 59.7524C154.596 59.7524 154.336 59.8948 154.099 60.1794C153.886 60.4404 153.779 60.7488 153.779 61.1046L154.099 61.8874C154.336 62.1247 154.596 62.2433 154.881 62.2433Z" fill="white"/>
<path d="M133.705 59.8952L134.131 59.5749L134.273 58.9344C134.273 58.6261 134.214 58.377 134.095 58.1872C134.001 57.9737 133.87 57.8669 133.705 57.8669L133.314 58.2228L133.171 58.97L133.314 59.6105L133.705 59.8952Z" fill="white"/>
<path d="M160.104 55.8036C160.696 55.4479 161.064 55.6494 161.206 56.4083L161.561 59.6455C161.656 61.0684 161.644 62.0289 161.526 62.527C161.407 63.0013 160.566 63.4519 159.003 63.8787L155.983 64.5902L151.577 65.4795L150.546 65.5863C150.357 65.5625 150.274 65.4677 150.298 65.3017L151.506 62.6337C151.648 62.2779 151.92 61.9341 152.323 61.602C153.934 60.2977 155.118 59.3609 155.876 58.7917L160.104 55.8036ZM160.85 54.5585C159.263 55.4597 157.605 56.5506 155.876 57.8313L152.323 60.7839L151.47 61.5309C151.091 61.8629 150.854 62.1594 150.76 62.4202L148.912 66.2977L148.663 66.9381C148.616 67.1752 148.699 67.3294 148.912 67.4005L149.196 67.1871L149.374 66.7246C149.421 66.606 149.599 66.4875 149.907 66.3689L150.795 66.191C151.529 66.191 152.986 65.9539 155.165 65.4795L160.708 64.1278C161.229 63.9143 161.656 63.5349 161.987 62.9894C162.366 62.3965 162.556 61.6969 162.556 60.8906C162.556 60.2265 162.485 59.2898 162.343 58.0803L162.165 56.1949L162.094 55.4479L162.165 54.8075C162.828 54.0961 163.124 53.681 163.053 53.5625C162.959 53.4439 162.224 53.7759 160.85 54.5585Z" fill="#0D131A"/>
<path d="M132.39 58.4356C132.39 60.5937 133.065 62.325 134.415 63.6293L134.948 63.4514C134.332 62.906 133.847 62.2064 133.491 61.3526C133.112 60.4751 132.923 59.5384 132.923 58.5423C132.923 57.6648 133.065 56.8467 133.349 56.0878L132.958 55.4119C132.579 56.4079 132.39 57.4158 132.39 58.4356Z" fill="#0D131A"/>
<path d="M131.608 54.9853L131.75 54.0604C132.556 55.5545 133.207 57.0604 133.705 58.5782C134.131 59.9063 134.368 61.2818 134.415 62.7047C133.61 62.3253 132.911 61.6138 132.319 60.5703C131.845 59.7166 131.596 59.0407 131.573 58.5427C131.454 57.2857 131.466 56.1 131.608 54.9853ZM142.658 12.2261C143.559 9.33285 144.849 7.8862 146.531 7.8862C147.645 7.8862 148.438 8.52652 148.912 9.80716C149.267 10.8032 149.386 11.9297 149.267 13.1866L148.805 18.9495L148.521 26.0998C148.568 28.5662 148.912 30.3804 149.551 31.5425C150.025 32.3725 150.902 33.1789 152.181 33.9615C153.199 34.5781 154.419 35.0168 155.841 35.2777L159.109 35.4911L157.724 36.0959L156.054 36.9852L154.739 38.0168L153.034 39.4753C152.489 40.0919 152.216 40.4833 152.216 40.6493C152.24 40.839 152.631 40.6611 153.389 40.1157L154.846 39.1552L155.983 38.3014C156.599 37.6848 157.238 37.2935 157.901 37.1275C158.351 37.0564 158.944 36.8192 159.678 36.416C160.554 35.9654 161.348 35.42 162.058 34.7797C165.185 32.1947 167.992 29.7164 170.479 27.3448L178.723 19.412C179.386 18.7954 180.381 18.4278 181.707 18.3092C183.034 18.1669 183.993 18.3566 184.585 18.8784C185.13 19.3527 185.367 20.1471 185.296 21.2618C185.225 22.2578 184.988 23.0286 184.585 23.574L181.245 27.5227L177.515 32.254C172.801 39.7955 170.444 45.4517 170.444 49.2224C170.444 50.9537 170.598 52.5782 170.906 54.096L171.723 57.1553L172.434 60.2502C172.671 61.5308 172.789 62.4557 172.789 63.0249C172.789 63.7127 172.623 64.5308 172.292 65.4795C171.936 66.5704 171.427 67.5902 170.764 68.5388C169.248 70.768 168.3 72.0487 167.921 72.3807L167.246 72.4874C166.843 72.4874 166.535 72.5586 166.322 72.7009L163.8 74.693C162.26 76.0685 160.957 77.4084 159.891 78.7128L155.023 84.2978C153.294 86.3136 152.24 87.6772 151.861 88.3887C151.506 88.9816 150.546 89.7879 148.983 90.8077C147.017 92.0883 145.252 92.7287 143.689 92.7287C142.883 92.7287 142.114 92.5745 141.379 92.2662L140.029 91.5903C138.868 91.0686 137.672 90.7958 136.44 90.7721C134.001 90.6535 132.449 90.3571 131.786 89.8828C131.359 89.5745 131.004 88.9935 130.72 88.1397C131.596 88.9935 132.437 89.4915 133.243 89.6338C134.332 89.8709 135.742 89.5745 137.471 88.7444L139.247 88.1397L141.344 87.8551L143.831 88.3531C145.063 88.5903 146.081 88.5784 146.887 88.3176C147.763 88.033 148.45 87.6298 148.947 87.1081L150.156 85.365C151.079 83.942 152.37 82.3175 154.028 80.4914C157.037 77.2424 159.003 75.2503 159.927 74.5151C160.306 74.2068 161.087 73.8511 162.272 73.4479L164.475 72.5941C164.854 72.357 165.138 71.9301 165.327 71.3135C165.446 70.9103 165.576 70.2226 165.718 69.2502C165.813 68.5625 165.801 67.9459 165.683 67.4004C165.588 66.9498 165.47 66.7245 165.327 66.7245C165.114 66.772 164.996 67.104 164.972 67.7206C164.712 69.855 164.451 71.1475 164.19 71.5981C164.025 71.8827 163.432 72.1791 162.414 72.4874C161.206 72.8669 160.365 73.2345 159.891 73.5902L156.16 76.7562C154.36 78.44 153.01 79.8392 152.11 80.9539C150.831 82.5665 149.634 84.2859 148.521 86.112L147.206 87.0014C146.519 87.2859 145.75 87.4282 144.897 87.4282L143.085 87.1792L141.202 86.9302L139.105 87.1792L137.08 87.7128C135.28 88.4954 134.214 88.8867 133.882 88.8867C133.195 88.8867 132.295 88.3057 131.182 87.1436C129.832 85.7444 128.47 83.7997 127.096 81.3096C126.314 79.8867 125.663 78.4993 125.141 77.1475C124.549 75.6297 124.253 74.4914 124.253 73.7325C124.253 73.1159 124.502 72.6534 124.999 72.3451L126.598 71.1712C127.119 70.5546 127.723 69.4281 128.41 67.7917C129.026 66.3688 129.476 65.1237 129.761 64.0565C130.163 62.5862 130.661 61.0447 131.253 59.432C131.727 60.8312 132.271 61.8984 132.887 62.6336L133.918 63.5585C134.32 63.8431 134.522 64.1395 134.522 64.4478L134.699 64.8036L135.019 64.7324C135.232 64.3055 135.339 63.7838 135.339 63.1672L135.019 60.8549C134.782 59.5506 134.557 58.6612 134.344 58.1869L131.892 51.8549C131.277 50.0051 130.969 48.4161 130.969 47.088C130.969 46.1869 131.146 45.3568 131.502 44.5979C131.786 44.0287 132.26 43.3291 132.923 42.4991C133.562 41.7165 134.309 40.5781 135.161 39.084C136.132 37.4002 136.926 35.7876 137.542 34.2461C138.868 30.8547 140.005 26.3606 140.953 20.7638C141.806 15.9732 142.374 13.1273 142.658 12.2261ZM141.806 10.5542L139.887 19.5543L137.968 28.3409C137.281 30.831 136.192 33.5227 134.699 36.416L132.106 41.1829C131.04 43.1513 130.424 44.5386 130.258 45.3449C130.068 46.2461 129.997 47.0406 130.045 47.7284L130.471 49.6138L131.146 52.0327L130.898 53.7403C130.732 55.1869 130.696 56.6928 130.791 58.2581L128.091 65.9063L126.811 68.8589C126.29 69.8313 125.864 70.4597 125.532 70.7443L124.076 71.7759C123.412 72.2977 123.081 72.9143 123.081 73.6258C123.081 75.0724 123.72 77.1357 124.999 79.8155C126.255 82.4954 127.688 84.7839 129.299 86.6812C129.393 87.9144 129.938 89.1357 130.933 90.3452C131.454 90.9381 132.473 91.365 133.989 91.6259L137.933 92.0883C138.62 92.1832 139.603 92.5389 140.882 93.1555C141.971 93.701 142.99 93.9737 143.938 93.9737C145.122 93.9737 146.555 93.5706 148.237 92.7642C149.634 92.0765 150.677 91.4124 151.364 90.7721L153.709 88.0686L157.191 83.7642L164.759 75.3333C165.422 74.6455 166.168 74.2187 166.997 74.0527L168.241 73.8036L170.16 71.5981L172.078 69.1079L173.571 66.3688C174.163 65.1593 174.459 64.2818 174.459 63.7364C174.459 62.9775 174.021 60.8194 173.144 57.262C172.363 53.9181 171.972 51.2264 171.972 49.1869C171.972 47.8114 172.54 45.6532 173.677 42.7125C174.672 40.1038 175.774 37.7322 176.982 35.5978C177.882 34.0089 179.504 31.9219 181.849 29.3369L186.007 24.7835C186.93 23.6215 187.333 22.2578 187.215 20.6926C187.12 19.2697 186.658 18.2262 185.829 17.5622C185.071 16.9218 183.922 16.578 182.382 16.5305C180.582 16.4594 179.114 16.9693 177.977 18.0602L171.581 24.4278L165.612 30.3686C163.243 32.4792 161.573 33.748 160.602 34.1749C159.986 34.4595 158.955 34.5781 157.51 34.5306C156.018 34.4595 154.846 34.2342 153.993 33.8548C152.761 33.333 151.849 32.7638 151.257 32.1472C150.333 31.1512 149.871 29.8231 149.871 28.163L149.836 23.325L149.978 19.0918L150.546 11.5503C150.594 10.4593 150.286 9.36842 149.623 8.2775C148.888 7.06801 147.953 6.38026 146.816 6.21425C145.679 6.07196 144.613 6.46326 143.618 7.38817C142.694 8.26565 142.09 9.32099 141.806 10.5542Z" fill="#0D131A"/>
</g>
<defs>
<filter id="filter0_d_1_54688" x="0.278103" y="0.611355" width="268.097" height="262.708" filterUnits="userSpaceOnUse" color-interpolation-filters="sRGB">
<feFlood flood-opacity="0" result="BackgroundImageFix"/>
<feColorMatrix in="SourceAlpha" type="matrix" values="0 0 0 0 0 0 0 0 0 0 0 0 0 0 0 0 0 0 127 0" result="hardAlpha"/>
<feOffset/>
<feGaussianBlur stdDeviation="2.69444"/>
<feComposite in2="hardAlpha" operator="out"/>
<feColorMatrix type="matrix" values="0 0 0 0 0 0 0 0 0 0 0 0 0 0 0 0 0 0 0.25 0"/>
<feBlend mode="normal" in2="BackgroundImageFix" result="effect1_dropShadow_1_54688"/>
<feBlend mode="normal" in="SourceGraphic" in2="effect1_dropShadow_1_54688" result="shape"/>
</filter>
<filter id="filter1_d_1_54688" x="159.512" y="32.8987" width="133.159" height="151.98" filterUnits="userSpaceOnUse" color-interpolation-filters="sRGB">
<feFlood flood-opacity="0" result="BackgroundImageFix"/>
<feColorMatrix in="SourceAlpha" type="matrix" values="0 0 0 0 0 0 0 0 0 0 0 0 0 0 0 0 0 0 127 0" result="hardAlpha"/>
<feOffset dx="13.4722" dy="18.8611"/>
<feGaussianBlur stdDeviation="9.43056"/>
<feComposite in2="hardAlpha" operator="out"/>
<feColorMatrix type="matrix" values="0 0 0 0 0 0 0 0 0 0 0 0 0 0 0 0 0 0 0.26 0"/>
<feBlend mode="normal" in2="BackgroundImageFix" result="effect1_dropShadow_1_54688"/>
<feBlend mode="normal" in="SourceGraphic" in2="effect1_dropShadow_1_54688" result="shape"/>
</filter>
<clipPath id="clip0_1_54688">
<rect width="257.319" height="251.931" fill="white" transform="matrix(-1 0 0 1 262.986 6.00024)"/>
</clipPath>
</defs>
</svg>
