<svg width="56" height="56" viewBox="0 0 56 56" fill="none" xmlns="http://www.w3.org/2000/svg">
<g filter="url(#filter0_d_1_18728)">
<rect x="3.99634" width="48" height="48" rx="24" fill="#DE527F"/>
<path d="M32.2902 26.5786H31.3868L31.0667 26.2699C32.226 24.9251 32.8632 23.2083 32.862 21.4328C32.862 19.9627 32.426 18.5257 31.6093 17.3034C30.7926 16.081 29.6317 15.1284 28.2736 14.5658C26.9154 14.0032 25.4209 13.856 23.9791 14.1428C22.5373 14.4296 21.2129 15.1375 20.1734 16.177C19.1339 17.2165 18.426 18.5409 18.1392 19.9827C17.8524 21.4246 17.9996 22.9191 18.5621 24.2772C19.1247 25.6354 20.0774 26.7963 21.2997 27.613C22.522 28.4297 23.9591 28.8656 25.4292 28.8656C27.2702 28.8656 28.9626 28.191 30.2662 27.0703L30.575 27.3905V28.2939L36.2925 34L37.9963 32.2962L32.2902 26.5786ZM25.4292 26.5786C22.5818 26.5786 20.2834 24.2802 20.2834 21.4328C20.2834 18.5855 22.5818 16.287 25.4292 16.287C28.2765 16.287 30.575 18.5855 30.575 21.4328C30.575 24.2802 28.2765 26.5786 25.4292 26.5786Z" fill="white"/>
</g>
<defs>
<filter id="filter0_d_1_18728" x="-0.00366211" y="0" width="56" height="56" filterUnits="userSpaceOnUse" color-interpolation-filters="sRGB">
<feFlood flood-opacity="0" result="BackgroundImageFix"/>
<feColorMatrix in="SourceAlpha" type="matrix" values="0 0 0 0 0 0 0 0 0 0 0 0 0 0 0 0 0 0 127 0" result="hardAlpha"/>
<feOffset dy="4"/>
<feGaussianBlur stdDeviation="2"/>
<feComposite in2="hardAlpha" operator="out"/>
<feColorMatrix type="matrix" values="0 0 0 0 0 0 0 0 0 0 0 0 0 0 0 0 0 0 0.15 0"/>
<feBlend mode="normal" in2="BackgroundImageFix" result="effect1_dropShadow_1_18728"/>
<feBlend mode="normal" in="SourceGraphic" in2="effect1_dropShadow_1_18728" result="shape"/>
</filter>
</defs>
</svg>
